<?xml version="1.0" encoding="UTF-8"?><svg xmlns="http://www.w3.org/2000/svg" xmlns:xlink="http://www.w3.org/1999/xlink" height="351.4" preserveAspectRatio="xMidYMid meet" version="1.0" viewBox="-0.3 -0.3 111.9 351.4" width="111.9" zoomAndPan="magnify"><g id="change1_1"><path d="M17.5,287.7l-0.8-0.5c-0.1-0.7,0.4-0.8,0.6-0.5L17.5,287.7z M15.6,291c0.3,0.8,1,1.7,1.8,1.2 c-0.7-0.8-0.4-1-1.3-1.8c-0.1-0.7,0.3-1.1,0.6-1c-0.2-0.2,0.2-1-0.3-1.4c-0.7,0.8-0.7,1.9-0.3,3C16,291.3,15.8,291.1,15.6,291z M12.3,339.6c0.1,0,0.2-0.1,0.4-0.2L12.3,339.6z M41.5,311c-0.2,0.2-0.2,0.4-0.2,0.5C41.5,311.2,41.6,311,41.5,311z M46.5,306.4 c-0.1,0.1-0.2,0.2-0.3,0.3C46.4,306.6,46.5,306.5,46.5,306.4z M12.7,339.4l1-0.6C13.8,338.5,13.2,339.1,12.7,339.4z M16.9,299.9 c0-0.2-0.1-0.4-0.2-0.6c0,0.2,0,0.4,0,0.5C16.8,299.9,16.9,299.9,16.9,299.9z M5.5,338.2l0.1-0.5c-0.1,0-0.2-0.1-0.3-0.1 C5.4,337.9,5.5,338.1,5.5,338.2z M9.3,323c-0.1,0.3,0.6,0.5,0.8,0.7c-0.2-0.2-0.3-0.5-0.3-0.7C9.7,323,9.6,323,9.3,323z M13.9,302.6 l-0.1-0.4C13.8,302.3,13.8,302.5,13.9,302.6z M68.8,12.7C68.8,12.6,68.8,12.6,68.8,12.7C68.7,12.6,68.7,12.6,68.8,12.7z M58.8,0.9 L59,1c0.1-0.1,0.2-0.2,0.2-0.3L58.8,0.9z M54.8,297.1C54.8,297.1,54.8,297.1,54.8,297.1C54.6,297.4,54.7,297.3,54.8,297.1z M102.1,194.4c-0.9,1.1-0.3-2.2-1.4-0.5C101,193.8,101.4,195.9,102.1,194.4z M16.8,300.2c0,0.2,0,0.4,0,0.5 C16.8,300.5,16.8,300.4,16.8,300.2z M70.2,273c-0.1,0-0.3,0-0.4,0.1C69.9,273.2,70,273.2,70.2,273z M57.9,290.4l0.4-0.4 C58.1,290.1,58,290.3,57.9,290.4z M75.2,262.3c0,0-0.1,0-0.1,0.1c0,0.1,0,0.3-0.1,0.4C75,262.7,75.1,262.6,75.2,262.3z M74.9,262.8 c0,0.1-0.1,0.1-0.2,0.2C74.8,262.9,74.9,262.8,74.9,262.8z M80,252.8c-0.1,0-0.1,0.1-0.2,0.1c0,0.1-0.1,0.2-0.1,0.3L80,252.8z M88,39.7c0.1-0.3,0.2-0.5,0.3-0.7C88,39.3,87.2,37.9,88,39.7z M16.5,299.9c0.2,0.1,0.2,0.2,0.3,0.4c0-0.1,0-0.3,0-0.4 C16.7,299.8,16.6,299.8,16.5,299.9z M70.2,260l0.9-1.5C70.9,258.9,70.5,259.4,70.2,260z M104.4,117.5c0,0.2,0,0.3,0.1,0.4 L104.4,117.5z M73.5,253.7c0.4-0.2,0.6-0.4,0.9-0.7c0-0.1,0-0.2-0.1-0.3L73.5,253.7z M110.8,131.4c-0.8,3.7-0.2,9.1-1.6,11.3 c0.2,3.7,1.1,6.5,0.5,10.5l-0.1-0.1c-0.3,1.3-0.9,4-2,3.8c0,2.9,1.1,4.8,0.2,8.2l-0.3-0.8c-0.3,0.8,0,2.3,0.1,2.6 c-0.1,0.3-0.2,0-0.4,0c-0.5,0.8,0,1.3,0,2l-0.3-0.3c-1.2,2.6-0.4,7-1.2,10.4c0-0.7-0.4-0.4-0.7-0.2c0.9,1.6-0.1,5.4-0.2,6.9l-0.3-1 c0.2,3-1.7,2.1-1.6,5.1l1-1.4c-0.5,1.1-0.5,2.1,0.1,1.9c-0.7,1.2-0.9,0-1.5,1.9c-0.3,0,0.1-1.5-0.5-0.9l-1.5,2.5l0,0 c0,0.1-0.1,0.1-0.1,0.2l0.1-0.2c-0.1,0.1-0.2,0.4-0.3,1.3c1.5,0.1-0.5,2.3,1.3,1.3c-0.9,3.9-2.7,6.8-3,10.3c-1.8,0.9-2,6.4-3.7,5.6 c-0.6,1.8-0.7,3.4-0.4,4.8c0.3-0.3,0.2-0.9,0.2-1.2c0.3,0.6-0.4,2.8-0.7,3.7c0-1.3,0.3-3.4-0.1-4.5c-0.4,1.7-0.5,4.2-0.6,5.2 l-1.1,0.1c0.2,1.6-1.1,0.9-0.7,2.6l0.4-0.2c-1,2.5-0.1,2.9-0.9,5.2l-0.3-0.2c-0.4,0.8-0.1,2.3-1.2,2.7l0.5-1.5 c-0.7-0.1-1.4,1-1.9,1.4c-0.4,1.7,0.8,1,0.6,1.8c-0.7,0.1-0.3,0-0.7-0.8c-0.5,1.9-1.3,4.4-1.1,5.9c-0.1,0-0.2-0.1-0.2-0.1 c-0.9,1.8-0.5,3.9-1.5,4.8l0.1-0.4c-1.5,1.1-0.9,4.2-2.5,3.8c-0.6,0.6,0.8-1.5-0.4-0.8c-1.4,2,0.6,2-0.7,3.7c0.2-0.2,0-0.2-0.1-0.3 c-0.6,1.4-1.4,3.3-2,4.9c-1,0.6-1.7,2.1-2.3,3.6c-0.7,1.5-1.5,2.9-2.7,3.6c0.8-0.4,0.3,0.8,0.5,0.9c0,0-0.1-0.2-0.2-0.1 c-0.4,0.7,0,1.1,0,1.5c-0.7,0.4-0.7,2.3-1.2,2.6c0.3,0.2-0.1,0.7-0.5,1.4c0.4-1.5-0.4-0.8-0.5-1.6c-1.2,1.9,0,3-1.4,5l-1.2,0.8 c0.7,0.7-0.8,2.5-0.4,2.6c-0.5,0.2-0.9,0.6-1.3,0.3c-0.3,1-1.5,1.9-1.2,2.5l0.7-0.7c-1.9,2.3-1.6,4.6-3.4,6.2l-1.2-0.8 c-1.3,1-0.9,2.8-2.3,3.4c0.7-0.1,0.6-0.3,0.4,0.8c0.4-0.4,0.7-1.5,1.2-2.3l-0.4,2.2c0.5-1,1-1.9,1.4-2.9c-0.3,1.5-0.3,1.3,0.5,1.1 c-0.7,1.9-1.7,1.4-2.3,3.2c-0.5,0.4-0.6-0.4-1.3,0.1c-0.5,1.7-2.6,2-2.6,3.4c-0.3,0.2,0.3-0.6,0-0.7c-0.5,1-1,1.5-0.8,2l0.7-0.6 c-0.5,0.6-0.1,1.1-1.3,2.1c-0.2,0.9,0,1.7,0.6,1c-0.2,0.4-1,0.8-1.1,0.3c-1.4,1.9,0.6,1.8-1.3,3.3c0.1-0.2,0.1-0.3,0-0.3 c-0.4,0.4-0.7,0.8-0.9,1.2c1.1-1.7-1.3-0.2,0.3-2c-0.8-0.2-1.2,1.4-1.9,1.8c-0.3,1.2,0.8,0.8,0.7,1.5c-0.2-0.2-0.5,0.2-0.9,0.6 l0.8-0.1c-0.3,0.4-0.6,0.8-0.8,1.3l0.4-0.9c-0.7,0.8-2.5,1.5-3.1,3.3c0.1-0.5,0.3-1.6-0.6-0.8c-1,1.8-0.5,0.2-1.5,0.9 c-1.1,1.7,0.6,0.9-1.6,3c-0.2,0.2,0.2,0.2,0.6,0.1c-1.5,1.4-1.9,2.5-3.5,3.8c0.7-0.6,1.2-1,0.7,0.1c0-0.7-1.4,1-2.1,1.4l0.1,0.3 c-0.6,0.3-0.3-0.3-0.1-0.8c0.1,0.1,0.2,0,0.5-0.3c0.4-0.9-0.6-1.3-1.7-0.2c-0.8,1.4-0.1,1.7,0.3,1.7c-1.7,1.4-0.4,2.4-2.1,3.7 c-0.3,0.4-2.3,0.8-3.4,1.8c0,1,1.6-1.1,1.5,0c-2.9,0.8-2.8,4.5-5.9,6.3l-0.3-0.9c-0.6,0.5-1.1,1-1.7,1.7l1.1-0.5 c-0.4,0.7-1.8,1.9-1.8,1c-0.8,1.7-1.3,1.7-2.6,2.7c1.3-1.2,0.1,0.1,0.7-1.1c-1.6,1-1.5,1.3-2.3,2.3c-0.1-0.4-0.8-0.2-1.2,0.1 c-0.5,1.2-2,2.5-3,3.8l-0.2-0.2c-0.9,1.1-2.1,1.8-3.3,2.7c-1.4,1.1-2.5,1.9-3.8,3.5c0,0.1-0.1,0.1-0.1,0.2l0.2-0.1 c0.2,0.1,0.2,0.3,0,0.6c0,0.1,0.1,0.3,0.1,0.4c0-1,0.7-0.3,1.1-0.4l0.4,1c0.2-0.1-0.4-2-0.2-2.1l0.1,0.5c0.3-0.3,0.5-0.2,0.9-0.2 l0.2,0.7c0-0.3,0.1-0.4,0.2-0.7c0.7,1.5,0.7-1.2,1.7,0.5l-0.3-1.2c0.2,0,0.3-0.3,0.7,0.6l0,0c0.3,1,0.2,0,0.3,0.2 c0.1-0.1,0-0.8-0.2-0.9c0.6,0.5,1.2-0.3,1.7,0.7c0.4-0.5,0.4-1.6,1-1.6l0,0.1c0.2,0.1,0.6,0.4,0.9,1.4c0.3-0.3,0.2-1.8,0.7-1.5 l0,0.4c0.2,0.2,0.2-0.4,0.2-0.5c0,0,0.1,0.2,0.1,0.4c0.2,0.3,0.1-0.2,0.2-0.4l0,0.4c0.5,0.6,0.7-0.9,1.2-0.8 c-0.1,0.1,0.1,0.5,0.1,0.7c-0.1-1.2,0.5-1,0.6-1.3l0,0.5c0.2-0.8,0.6,1.2,0.8,0.3l-0.3-0.6c0.2,0.2,0.3-0.1,0.1-0.6 c0.2,0.4,0.2,0.9,0.5,1c0.1,0.3-0.1,0.3,0,0.7l0.5,0.8l0,0c0,0,0,0,0,0c0,0.1,0.1,0.1,0.2,0c-0.3-1.5,0.3-0.1-0.2-1.5 c0.5-0.2,1.1,0.7,1.4-0.1c0.4,1.4,0.9-0.1,1.1,1.8c0.2,0,0.4-0.4,0.4-1.2c-0.1-0.1-0.1,0.1-0.1,0.2c0-0.5,0.3-0.6,0.4-0.6 c-0.1,0.4-0.3,0.8-0.3,1.6c0.2-0.2,0.4-0.9,0.5-1.2l0.2,0.9c0.1-0.7,0.3,0.7,0.3-0.2l-0.1-0.3c0.4,0,0.2-0.9,0.5-1.1l0,0.4 c0.1,0.1,0.2-0.8,0.4,0.1l-0.2,0.1c0.1,0.7,0.3,0.9,0.4,1.3c0.2-0.2-0.1-1.1,0-1.2c0.1,0.6,0.1,0.3,0.1,1c0.2-0.3,0.5-0.6,0.6-1.4 c0,0.1,0,0.2,0,0.2c0.3,0.1,0.4-1.1,0.6-0.5l0,0.1c0.3,0.9,0.5-0.9,0.7,0.6c0.1,0.3-0.2,0,0,0.7c0.4,0.5,0.1-1.3,0.4-0.9 c0,0,0,0,0,0.2c0.2-0.1,0.4-0.2,0.6-0.4c0.4,1.3,0.8-0.4,1.2,1.1c-0.1-0.5,0-0.6,0-0.9c0,0,0,0.1,0,0.2c0.1,0,0.1-0.5,0.1-0.7 c0.1,0.5,0.3-0.5,0.4-0.2c0-0.3,0.1-0.2,0.2-0.3c-0.2,0.4,0,0.7-0.1,1.2c0.3,0.1,0.2-1.5,0.6-1.2l0.2,0.6c0-1,0.3-0.6,0.3-0.9 c0.1,0.3,0.2,0.5,0.2,0.9c0.1-0.2,0.3,0.2,0.3-0.3l-0.1-0.2c0.4,0.3,0.6-1.1,0.9-0.4l0.1,1.4c0.2,0.6,0.3-0.8,0.5,0.1 c-0.1-0.5-0.1-0.3,0-0.8c-0.1-0.1-0.2,0.3-0.3,0.3l0.2-0.9l-0.4,0.4c0.2-0.6,0.1-0.4,0.1-1c0.2-0.5,0.3,0.7,0.5,0.1 c0.1,0.2,0,0.7,0.1,1c0.2-0.5,0.4,1,0.6,0.3c0.1,0.1-0.1,0-0.1,0.4c0.1-0.1,0.2-0.1,0.3-0.5l-0.1-0.2c0.1,0,0.1-0.6,0.3-0.2 c0.1-0.3,0.2-1,0-1.1c0-0.1,0.2,0.3,0.1,0.7c0.3,0,0.1-1.5,0.4-0.9c0,0,0,0.1,0,0.2c0.1,0.1,0.1,0.1,0.2,0c-0.3,0.1,0.1,1.2-0.2,0.9 c0,0.8,0.2,0.2,0.3,0.4c0.1-0.5,0-1.1,0.1-1.5c0,0.2,0.1,0.2,0.1,0.3l-0.1-0.6c0.1,0,0.1,0,0.2-0.1l-0.1,0.2c0.1,0.1,0.4,1,0.6,0.5 c-0.1,0.2-0.2,0.7,0,1c0.3-0.4,0.1,0.2,0.2,0.7c0.3-0.1,0-1,0.4-0.7c0,0,0-0.3,0-0.5c0.3,0.3,0.4-0.1,0.7,0.3 c-0.1-0.2-0.2-0.4,0-0.6c-0.1,0.5,0.2,0.5,0.3,0.7l0-0.3c0.1,0.3,0,0.4-0.1,0.5c0-0.1,0-0.2-0.1-0.2c-0.1,0.2-0.1,1.3,0.1,1.4 c0.2-0.3,0.2-1,0.2-1.3c0.3,0.3,0.3-1.3,0.6-0.9c0.1,0,0.2,1.2,0.4,1.3c0.1-0.7-0.2-0.5-0.1-1.1c0.3,1.7,0.7-1,1.1,0l-0.1,0.8 c0.1,0.1,0.2,0.1,0.3,0l-0.1-0.4c0.1-0.2,0.3,0,0.2,0.6c0.3-0.6,0.3-0.3,0.5,0c-0.2-0.1,0-0.1-0.2,0.3c0.2,0.4,0.2,0.1,0.4,0 c0,0.3,0,0.7,0.1,0.7c0.2-0.5,0.4-0.4,0.7-0.6l0,0.2c0.4-0.3,0.7,0.9,1.1,0.2c0,0,0,0,0,0l0-0.1c-0.1-0.8,0.3-0.5,0.5-0.8 c0,0.2,0,0.5,0.1,0.5c0.1-0.7,0.2-0.4,0.3-0.7c0.1,0.3-0.1,0.9,0.1,0.8c0.1-0.1,0.1-0.4,0.1-0.7c0,0.4,0.1,0.7,0.2,0.8 c-0.1,0.2-0.1-0.1-0.1,0c0,0.4,0,0.2,0,0.7c0.1,0.1,0.1-0.7,0.2-0.4l-0.2,0.6c0,0.1,0.1-0.1,0.1-0.1c-0.1,0.1-0.1,0.7-0.2,1 c0.3-0.4,0.2-1.5,0.3-2.1c0.2,0.5,0.5-0.2,0.7-0.3l-0.1,0.7c0.1-0.1,0.2-0.2,0.2-0.5l0.2,0c-0.1,0.2-0.2,0.4-0.2,1 c0.2-0.2,0.4,0,0.5-0.9l0,0.1c0.2,0.3,0.6,0.6,0.6,0.9c0.3-0.3,0.5,0.3,0.6-0.6c0.2-0.2,0.2,1.2,0.5,0.1c0.1,0.6,0,0.2-0.2,0.9 c0.1,0.6,0.5-0.9,0.3,0.4c0.2-0.4,0-0.3,0.1-0.8c-0.1,1.2,0.3,0.2,0.4,0.9c0.2-0.5,0-0.3,0.2-0.8c-0.1,0.3,0,0.4,0,0.4l0.1-0.7 l-0.1,1.8c0.4-0.8,0.1-1.3,0.6-1.6l0,0.1c0,0.8,0.4-0.5,0.5,0.1c-0.1-0.2-0.1,0.3-0.2,0.6l0.2-0.3c0,0,0,0.1,0,0.2 c0,0.6,0.2-0.3,0.2,0.2c-0.1,0.1-0.2,0.7-0.2,1l0.4-0.8l-0.3,1c0.2,0.1,0.8-1.4,0.6,0l-0.1,0.1c0,0.2-0.1,1,0.1,0.5 c0.1-0.1,0.2-0.7,0.1-0.7l0.1,0.2c-0.2,0.6-0.5,0.8-0.6,0.9c0.1-0.3,0.3-0.4,0.3-0.9c-0.2,0.2-0.4,0.6-0.6,0.8 c0.1-0.3,0.2-0.7,0.3-0.9c-0.1-0.4-0.2,0.4-0.3,0.5c0-0.3,0-0.4,0.1-0.6c-0.2,0.2-0.3,0.3-0.4-0.1c0,0,0.3-0.5,0.2-0.8 c-0.4,0.3-0.5,1.1-0.9,1.5c-0.5,1-0.6-0.8-1,0c-0.1,0.3,0.1,0.5-0.1,0.7c0.1-0.6,0-0.4,0-0.6c-0.3,0.8-0.2-0.2-0.4,0.4 c0.1-0.2,0-0.4-0.1-0.7c0.1-0.7-0.2-0.3,0.2-1.3c-0.4,1.1-0.4-0.3-0.8,1.3l0,0.2l-0.2-0.4l0,0c-0.1-0.1-0.1,0.1-0.2-0.7 c0.1-0.2,0.2-0.2,0.3-0.3c-0.1-0.7-0.4,0.5-0.5,0.5c0.1-0.5,0.2-0.2,0.2-0.8c-0.1-0.1-0.2,0.3-0.4,0.4l0-0.3 c-0.2-0.7-0.3,1.4-0.4,0.4c0,0.2-0.1,0.4-0.1,0.5c0-0.3-0.2-0.9,0.1-1.2c-0.1,0-0.2,0.2-0.3,0.6c0,0.4,0.1,0.2,0.1,0.8l-0.4,0.3 c0,0,0.1-0.3,0.1-0.3c-0.3-1.6-1,1.2-1.4-0.7c0,0.5-0.1,0.4-0.1,0.8c-0.2-0.2-0.4-0.1-0.5-0.4l0.1-0.3c-0.4,0.4-0.7,0.9-1,0.7 c0,0.1,0-0.5,0.1-0.6c-0.2,0.6-0.3-1.4-0.5-0.1l0.1,0.1c-0.4-0.3-0.8,0.7-1.2,0.8c-0.1-0.8,0.2-0.1,0.2-1c-0.3-0.3-0.6,0.3-0.9,0.1 c0.1-0.1,0-0.2,0.1-0.2c-0.3-0.5,0,0.8-0.2,0.7c0-0.4,0-0.5-0.1-0.7l-0.1,0.6c0-0.1,0-0.6,0.1-0.8c-0.1,0.8-0.5,0.2-0.6,1 c0-0.2,0.1-0.9,0-1.2c-0.1-0.2-0.2,0.1-0.3,0.4l0,0c-0.1-0.5-0.3-0.5-0.3-0.6c-0.2-0.3,0,0.4-0.2,0.9l0.2,0.4l-0.3,0.2l0.1-0.4 c-0.2-0.3-0.3,0.4-0.5,0.3l0.1,0.4L42,341c0-0.9-0.3-0.2-0.1-1.3c-0.4-0.5-0.6,0.7-1,0.8c0.1,0,0-0.2,0-0.3 c-0.2-0.2-0.3,0.3-0.4,0.7c0-0.3,0.1-0.4,0.1-0.6c-0.2,0-0.1,0.5-0.4,0.8c0.1-0.4,0-0.6,0-0.7c0,0.3,0,0.6-0.1,0.7 c0.2-1.8-0.3-0.7-0.2-2.2c0,0.4-0.4,1.2-0.3,1.9l0.1-0.1c0,0.5-0.1,0.3-0.2,0.3c0-0.1,0.1-0.2,0.1-0.3c-0.4,0.6-0.8,0-1.2,0.5 c0-0.2,0.2-0.5,0.1-0.7c-0.4-0.2-0.6,0.7-1,1.2c-0.1-1.2,0.4-0.2,0.4-1.3c-0.4,0.3-0.9,0.7-1.3,1.3c-0.3-1.7-0.4,0.7-0.8-0.6 c0.1,0.6-0.1,0.8-0.2,0.8c0-0.5-0.2-0.5-0.1-0.8c-0.1,0.5-0.5,0.8-0.6-0.3c0,1.1-0.3,0-0.4,0.7c-0.2-0.4-0.4,0.3-0.6,0 c0.1,0.7-0.2,0.3-0.3,0.6c0,0,0.1-0.1,0-0.2c-0.1-0.6-0.2,0.5-0.4,0.2c-0.1-0.2,0-0.6-0.1-0.7c0,0.5-0.2,1.1-0.4,0.5 c0.1,0,0-0.2,0.1-0.4c-0.5,0.9-1.3-0.1-1.8,1l0-0.8c-0.5-1-0.1,1.4-0.4,1.3c-0.9-0.3-1.9-1.3-2.6-0.6c0,0.2,0.1,0.3,0.1,0.6 c-0.1-0.1-0.2-0.7-0.2-0.3l0.1,0.4c-0.6-1.1-0.9,1-1.5-0.8c-0.2,0.7-0.7-0.4-0.9,0.7c-0.2-0.4,0-0.8-0.2-0.8L25,343l0-0.1 c-0.1,1.4-1.3-1.2-1.6-0.2l0-0.1c-0.1-0.3-0.2-0.6-0.3-0.5c0,0.2,0.1,0.3,0.2,0.5c-0.3,0.6-0.4,0.6-0.7,0.8c0-0.5-0.2-0.3-0.4-1 c0,0.4,0.2,0.6,0.1,1c-0.3,0.1-0.7-0.3-0.9-0.5c0,0.6-0.1,0.4,0,1.1c-0.3,0.1-0.4,0.4-0.8,0.5l-0.1-0.2c0.1,0.9-0.4-0.3-0.4,0.2 c-0.1-0.3-0.1-0.4-0.1-0.7l-0.1,0.3c0-0.3-0.2-1.1-0.3-1.1c0,0.6,0.1,0.4,0.2,0.9l-0.3-0.8c-0.1,0.1,0.1,1,0.3,1.2 c-0.4,0.1-0.7,0.6-1,0.5l-0.1-0.5c-0.1,0.2-0.4,0.3-0.6-0.1c0,0.1,0.1,0.4,0.1,0.6c0,0.7-0.3-0.8-0.3,0c0-0.2,0.1-0.3,0-0.6 l-0.3,0.8c-0.1-0.4-0.6-1.1-0.7-0.7c0.1,0.2,0.2,0.5,0.3,0.5l-0.1,0.2l-0.4-0.8l0.1,0.8l-0.2-0.7c-0.1,0.2,0.2,1.1,0,1.1 c-0.5-0.3-0.5-0.6-1-1.2c0.4,1.4-0.5,0.1-0.2,1.1c-0.7-0.9-1.1-0.1-1.7-0.2l0-0.1c-0.4-0.6,0.1,1.1-0.2,0.9l0-0.2 c-0.6-0.6-0.8,0.2-0.9,0.9c0-0.2-0.2-0.6-0.3-0.6c0,0.3,0.4,0.9,0.2,0.7c0-0.1-0.2-0.4-0.2-0.4l0.1,0.7c-0.6-0.3-1.2-0.6-1.5-0.1 c-0.2-0.2-0.2-0.5-0.3-0.7c-0.3,0.3-0.4,1-0.6,1.2l-0.4-0.8c-0.1,0.1,0.4,1.2-0.1,0.6c-0.1-0.1,0.1-0.1,0-0.5 c-0.5-0.5,0.1,0.8-0.2,0.8l-0.3-0.9c-0.4-0.4,0,0.6,0.1,1.1c0.1,1.1-0.9-1.6-1-0.6c0.1,0.4,0.3,0.6,0.4,1.1 c-0.4-0.1-0.1,0.5-0.5,0.4c-0.7-1.2,0.1-0.1-0.6-1.2l0.3,0.2c-0.5-0.6,0.1-0.2-0.3-1c-0.2-0.2-0.2,0.6-0.2,0.9 c-0.3-0.6,0.2-0.2-0.3-0.9l0,0.3c-0.1-0.2-0.1-0.4-0.1-0.4c-0.3-0.5-0.1,0-0.2,0.1c0.1,0.3,0.3,0.7,0.5,1.1c0-0.1-0.1-0.1-0.1-0.2 c0.2,0.9-0.4,0.4-0.2,1.1c-0.1-0.2-0.1-0.2-0.2-0.3c-0.1,0,0.1,0.8,0.1,1.1c-0.3-0.4-0.5-1.3-0.7-0.9c0.2,0.5,0.7,1.3,0.5,1.3 c0,0,0-0.5-0.3-0.7c0,0.4-0.1-0.1-0.6-0.6c0.2,0.7-0.3-0.1,0.2,0.9c-0.4-0.7-0.3-0.4-0.6-0.9c0.3,0.6,0.1,0.7,0.4,1.4 c-0.4-0.8-0.3-1.1-0.8-1.8c0.2,0.6,0,0.9,0.5,1.7c-0.2-0.2-0.4-0.4-0.5-0.5c0,0,0-0.1,0-0.2c0.1,0.7-0.6,0.3-0.1,1.4 c-0.6-1.3-0.5,0.1-1-1.1c-0.1,0.1,0.1,0.7,0.1,0.9c-0.5-1-0.4-0.1-0.8-0.6c0.2,0.6,0,0.5,0,0.8c0-0.1-0.1-0.3-0.2-0.6 c0.1,0.4-0.1,0.1-0.4-0.3c0,0.4,0.4,0.7,0.6,1.2c-0.2-0.1-0.3-0.6-0.6-1l0.3,1.1c-0.1-0.1-0.2-0.2-0.4-0.5c0.1,0.3,0.2,0.7-0.1,0.3 l0.2-0.1l-0.3-0.4l0.1,0.7c-0.7-0.5-1.1-1.6-1.7-2.6l0-0.2c-0.2-0.3-0.4-0.5-0.4-0.5c-0.2-0.2-0.4-1.2-0.3-1.4 c0.4-0.1,0.7,1.1,1.1,1.2l0-0.8l0.2,0.3c0.2,0.2,0-0.2,0-0.3c0.2,0.5,0.3,0,0.5,0l-0.3-0.4c-0.2-1.2,1.2,0.8,1.2,0.1l-0.2-0.9 l0.4,0.6c-0.1-0.5-0.3-1,0-0.8c0.2,0.1,0.4,0.2,0.6,0.2c0.6-1.6,0.8-2.4,1-3.2c0.1-0.9,0.2-1.8,0.6-3c0.3-0.1,0.6-0.3,0.8-0.5 c0.2-0.9,0.1-1.2-0.2-1.3l0.5-1.7c0,0.8,0.2,0.9,0.9,0.5c0.2-1.4,1-3.5,0.2-3.9l0.1,0.1c0.4-0.9,0.9-2.4,1.4-3.6 c0.4-1,0.7-1.9,0.8-1.8c0.2-1.9,1.1-4,0.3-4.3c0-1.1,1.7-2.6,0.8-3.6c0.8-1.2,0.2,0,0.8,0.5c0.8-1.2-0.4-2.8,0.9-3 c-0.1-1.6-0.3,0.3-0.8-0.3c1.2-0.1,0.7-2.8,1.6-4.1c-0.4-0.7-0.4,0.6-0.7-0.6c0.3,0.2,0.4-0.4,0.5-0.7l-0.7-0.4l2-1.2 c-0.6-2.3-1.3,0.3-1.3-2.6l0,0.2c0.9-0.7-0.3-2.1,0.5-4.1c-0.2,0.7,0.3,0.3,0.5,0.6l-0.2-1.2c0,0.1,0.1,0.2,0.2,0.1 c0.7-1-0.2-0.9,0.4-2c0.1,0.8,0.7,0.6,1,0.3l-0.7-1.8l0.9,0.8c0.2-1.7-1.2-4.2,0.3-5l0.1,0.8c0.2,0,1-0.5,0.6-1.6 c-0.1-0.3-0.5-0.5-0.6-0.4l0.2-0.6c0.6,0.4,0.7,2.5,0.8,3.9c-0.2-0.4-0.4-1.5-0.8-1.2c0.1,1.2,0.5,2.3,0.6,3.5 c-0.2-0.5-0.6-0.8-0.9-1c-0.5,1.2,0.4,1,0.3,1.9c-0.3,0.3-0.5,0.6-0.7,0.3c0.2,1.2,0.1,2.2-0.4,3.4c0,0-0.3-1.5-0.8-0.7 c0.2,2.3,0.9,2.9,1,5.4c0.7,3-1.5,5.5-1.1,7.6c0.3,0.2,0.8-1.4,0.7-0.1c-0.5-0.3-0.5,0.7-0.8,0.7c0.6,1.6-0.6,2-0.2,3.1 c-0.2-0.3-0.5,0.5-0.9,1c-0.7-0.3-0.6,1.5-1.2-0.8c0.7,2.3-1,3.6,0.3,5.5l0.3-0.5c-0.3,0.7-0.5,1.3-0.8,2l0-0.1 c-0.3,0.9-0.2,1.1-1.2,2.1c-0.1-0.6,0.1-1.3,0.1-1.9c-0.9,1,0,2.4-0.3,3.7c-0.5-0.2,0.1-1.3-0.6-1.1c-0.3,0.8-0.1,1.7-0.1,2.4 l-0.3-0.1c-0.6,1-0.3,1.2,0.1,1.2c0.3,0,0.7-0.1-0.1,0.7c0.2-0.1,0.4-0.1,0.6-0.3c-0.2,0.3-0.6,0.8-0.9,1.2 c-0.3,0.4-0.6,0.6-0.7,0.1c-0.2,0.7-0.1,1.3,0.3,1.2c0.7-1,0.5-0.9,1.3-1.6c0,0.5-0.1,1-0.1,1.3c-0.1,0.2-0.4,0.4-0.3,0.1 c-0.7,1.1-1.1,2-1.3,2.6c-0.2,0.6-0.2,0.9-0.1,1.1l0,0.1c0,0,0,0,0,0l0.1-0.1l0.1-0.2L9,339c0.3-0.4,0.6-0.7,0.9-0.9 c0.5-0.4,0.7-0.3,0.9,0.1c0.1-0.8,0.5-1,0.9-1.8c0.5-0.2,1.4-1.2,2-1.3c0,0.2-0.1,0.4-0.1,0.6c1.3-1.7,2.8-3.8,4.5-5 c0-0.2,0.3,0.4,0.1,0.7c0.7-1.5,3.3-1.4,2.8-2.6l-0.5,0.3c1.2-1,2.2-2.2,3.2-3.5c0.5-0.6,1-1.3,1.5-1.9c0.5-0.6,1-1.3,1.5-1.9 c1.1,0-1.2,1.4-0.1,1.5c1.7-1.4,2.8-3.4,4.6-4.9c-0.2,0.3-0.1,0.3-0.2,0.5c2-1.4-0.7-0.3,0.7-1.7c0.2,0.3,0.4,0.3,0.9,0l-0.1-0.9 c0.1,0,0.5,0.3,0.4,0.7c0-1.2,2.2-2.8,2.1-3.8c0.3,0,0.5,0.8,0.9,0.8c0.9-0.6,1.1-1.4,1.4-2.1l0,0c0.9-0.2,2-1.6,1.9-1.3 c1.4-1.3-0.1-0.5,0.4-1.9l-1.2,0.9l1.6-2.2l-0.4,1.1c1-0.8,1.3-2.1,2.2-3.2l-0.8,0.2l0.8-1.4c0.8,0.5,1.5-1.5,1.7-0.1 c2.3-2.1,2.5-4.4,4.1-6.6c-0.3,0.4,0,0.3,0,0.5c1.1-1.1,1.4-2.2,1.6-3.2c0.1,0.3,0,0.7,0.1,0.8c1.1-1.5,0.3-1.2,1.3-3.1 c0,0.7,0.2,0.7,0.6,0.3c-0.3-0.1-0.2-0.7-0.1-1c0.5,2.3,2-1.5,2.6,0.2c-0.2-0.3,1-3.4-0.1-3.1l-0.2,0.5c-0.4-0.2,0.2-0.7,0.5-1.2 c-0.1,0.3-0.2,0.6-0.1,0.7c1.2-2.7,3.4-5.1,4.9-8.1c0,0.3-0.5,1.6,0.1,1c2.1-2.6,2.2-4.8,3.6-7.8c1.1,0.5-1.8,3.1-0.9,3.8 c1.6-3.1,3.2-6.4,4.6-10.1c2.1-0.3,1.3-3.6,3.6-5.1c-0.6-0.1-0.2-1.2,0.4-2.4c0.2,0.6,0.9-0.6,1-0.1c0.1-1.3,1.5-4.3,2.4-3.7 c-0.8-0.7,1.2-2.2,0.9-3.4c1-1.1,1.2-2.9,2.3-4.4c-0.9,0.3,0.5-1.7,0.5-2.5c0,0.2-0.1,0.6,0,0.5c0.8-0.3,0.4-2.1,1.1-2.9 c0.4-0.3,0.5,0.4,0.9-0.3c-0.4-0.2,0.2-3,1.2-3.6c-0.2,0.4,0,0.5,0.1,0.9c0.7-2.4,1.6-4.7,2.6-7c0.5-1.2,1-2.3,1.4-3.5 c0.4-1.2,0.7-2.4,0.9-3.6l0.4,1.1c2.1-2.5-0.5-2.4,0.4-4.6c0.7-1.5,1.4-3.1,2.1-4.6l2.1-4.7c1.3-3.1,2.4-6.3,3.1-9.5 c-0.1-0.5-0.4,0.2-0.7,0.2c0.3-0.5,1-0.5,0.8-1.3l-0.5,0c1.9-2.6,1.5-8.5,3.8-10.2c0-2.9,1.6-4.6,1.3-8.3c0.6-1,0.5,1.4,0.9,0l0-3.3 l0,0.2c-0.3-1.7,0.4-3.6,1.2-5.6c0.8-2,1.6-4.2,1.4-6.2l0,0.2c0.3,0.1,0.8-0.6,0.8-1.2c-0.2-0.2-0.4,0.2-0.7,0.5 c0.1-3.5,0.1-4.3,0.3-7c0.3,1.2,0.5-1,1.2-1.1c-0.3-0.8-0.7,0.3-0.8-1.3c0.3-2.3,0.9-4.3,1.4-6.2c-0.5-0.8-0.2-1.8-0.9-1.9 c0.2-2.6,0-4,0.2-7.2l0.2-0.1c-0.8-0.9,0.6-2.7,0.1-3.3c0.3,0.1,0.4,0.4,0.6,0.4l-0.2-1.5c0.2,0.7,1,1.1,1.2-0.1 c-0.5-1.3-0.4,0.3-0.9-0.3l0.8-0.3c-0.1-0.9-1-1.2-1.2-0.1c0.1-3.2-0.2-6.3,0-9.1l0.5,0.3c-0.2-1.6-0.2-3.7,0.2-4.6 c-0.2,0-0.4-0.4-0.6-0.2c-0.7-1.7,0.6-0.4,0.2-1.9c0.1,0.4,0.2,0.8,0.5,0.8l-0.7-3.8c0.4,0,1.2-2.4,0.7-4c-0.2-0.1-0.5,0.4-0.5,0.8 l-0.2-1l0.9-0.8l-0.8-1.5l0.7-0.1c-0.2-1.1-1.2-1.5-1.1-2.4c0.2-3.3,0.5-2.7,1.1-5.1c-1.5-0.2-0.2-3.8-1.3-4.3 c0.4-1.6,0.2-3.6,0-5.6c-0.2-2.1-0.5-4.2-0.7-6.3l0.2,0.3c0.4-1.9-1.4-1.8-1.4-3.8l0.3,0.4c0.2-1.3,0-3-0.5-4.6 c-0.5-1.6-1.1-3.2-1.6-4.3c0.3,0.4,0.7,0.1,0.5-0.6c-0.4-0.6-0.9,0.8-0.9-0.5c0.2,0.3,0.5,0,0.4-0.3L99,76 c-0.2-3.4-0.6-7.4-1.8-10.7c0.1-0.7,0.5-0.3,0.7-0.2c-0.4-1.3-1-2.6-1.5-3.9c-0.5-1.2-1.1-2.5-1.5-3.6l0.7-0.5 c-0.4-1.2-1.4-0.3-1.2-2.1c0-0.4,0.4,1,0.9,1.3C95,53.9,94,55.2,93.3,53l1.1,0.3c-0.1-1.9-1.2-1.8-1.9-2.2c-1.9-2,1.1-2.3-0.9-5.2 C91,45.5,91,46.3,90.4,46c-0.7-2.3-1.4-2.3-2.2-4.6c0.7-1.7,0.5,1.1,1.1-0.7l0.5,1.8c0-1.7,0.8,1.2,1.4,0.7 c-0.2-1.2-1.7-2.6-2.5-3.9c0.6-0.3,0.8,1.6,1.3,0.6l-0.6-0.6c0.3,0.1,0.5,0.1,0.7,0.5c0.4-0.5-0.4-0.9-0.7-1.6 c-0.3,0.1-0.7,0.3-1,0.7c0-0.1,0.1-0.1,0.1-0.3c-1.5-1-2.1-3.6-3.3-4.5c0.3,0.1,0.2-0.1,0.3-0.2c-0.4-0.8-1.6-1.3-2.4-2.2 c0.1-0.8,1.4-0.3,0.2-2c-0.6,0-0.9,1.2-1.8-0.3c0,0,0.3,0.3,0.5,0.4c0.3,0.2,0.5,0.2,0.5-0.2c-1.2-1.2-0.1-0.5-0.4-2.1 c-1.1-0.3-0.7-1.5-1.8-1c0.4-0.9,0.2-0.6,0.1-1.8c-0.3,0.7-1.7-1.2-2.3-0.7c0.5-0.9,1.9,0.8,1.9-0.8c-1-0.4-2.2-1.7-3.1-1.2 c-0.3-0.7-0.1-1.2-0.8-2.1c0.1,0.2,0.3,0.2,0.5,0.2c-1.8-1.1-3.1-3.7-4.7-3.7c1.3-0.7-2.7-3.1-0.8-2.9c-0.6-0.6-1.9-1.1-2.3-1 c0.8-0.7-1.3-1.5-1.6-2.6c-0.7,0.1-1.7-1-2.6-1.2c0.4,0.1,0.7,0.1,0.7-0.2c-1.1-0.3-0.6-0.4-1-1.4c-1.3-0.6-0.3,0.8-1.3,0.7 c-0.8-0.9,0.3-0.7,0.4-1.1l-2-0.2c-0.2-0.3-0.3-0.6-0.3-0.9c-0.7-0.1-1.4,0-1.8-0.8l1.3,0.8l-0.2-0.8l-1.9-0.4C57,2.5,58.2,1.9,59,1 l1,0.4c0.2-0.3-0.3-0.9-0.7-1.2c-0.3-0.5,2.1-0.1,3.2,0.4c2.7,1.8-0.1,1.4,1.5,2.9l2.6,1.2l-0.2,0.3c0.2,0.5,0.7,0.3,0.8,0.3 c-0.3,0.2,0.2,0.6,0.8,1c0.6,0.5,1.3,1,1.7,1.4l0-0.7c1.6,0.6,2.4,1.7,3,2.8c0.6,1.1,1,2.2,2.1,2.9c0.6,0.2,1.2,0.5,1.9,0.7 l-0.3,0.8c1,0.5,1.6,0.3,2.5,1.8c0.4,0.7,0.8,1.3,1.2,2c0.4,0.7,0.8,1.3,1.3,2c0.9,1.3,1.9,2.5,2.8,3.8c0.9,1.3,1.9,2.5,2.7,3.9 c0.8,1.3,1.5,2.7,2.1,4.1c0.1-0.1,0.1-0.2,0-0.4c0.5,2.6,1.8,4.1,3.1,5.7c1.3,1.6,2.7,3.2,2.9,5.7l-0.4-0.2c1.1,2.2-0.4-0.2-0.1,1.6 c0.9,0,1.8,2.6,2.6,3.8c-0.2-0.1-0.4-0.6-0.7-0.9c-0.1,0.3-0.6,0.6-0.2,1.2c1.7,1,2.8,4.3,3.9,6.5c-0.5,0.5-0.3,2.7-0.9,4 c0.3,0.2,0.8,0.5,1.4,0.8c-0.1,1,0.3,1.5,0.9,2.1c-0.2-0.8-0.4-1.4-0.6-1.9c0,0,0.1,0,0.1,0c-0.1-0.1-0.1-0.2-0.2-0.3 c-0.2-0.5-0.3-0.8-0.3-0.6c0.3-1.1,0.5-0.1,1.1-0.3c0.2,0.8,0.9,2.4,0.4,2.7c0.1,0.5,0.1,0.8,0.2,1.3c0.2,0.3,0.3,0.6,0.3,1 l-0.1-0.1c-0.1,0.1-0.1,0.2-0.2,0.3c0.1,1.6,1.7,3.5,2.4,4.7c-1.1-1.1-0.9,0.5-1.5,0.7c0.1,0.1-0.2-1.5-0.7-3.4 c0,0.2-0.1,0.3-0.3,0.4c-0.2,1.8,1.3,2.8,1.4,5.3c-0.1-0.1-0.3-0.4-0.5-0.3c0,0.9,0.7,1.6,1.1,1.7c-0.5,0.3-0.6,2.3-0.2,3.2 c0.7,0.7,0.9,0.6,1.1,2.1l-0.5-0.6c0,1.7,0.8,1.4,0.8,2.6c-0.1-0.4-0.4-0.3-0.4,0.1c0.6,1.8,0.8,1.8,1.9,3l-0.7-0.1 c0.6,1.5,1.9,4.3,1,4.5c1.3-0.7,1.3,3.3,1.4,4.7c-0.1-0.5-0.4-0.5-0.6-0.5c1.3,2.8,0.7,5.8,1.1,8.7l-1,0.6c0.2,1.5,2.2,1.8,2.3,3.5 l-0.5-0.6c0.4,3,0.4,4.2,0.4,6.6l-0.7,0c0.4,0.8,0.4,1.9,0.8,2.8c-1.6,2,1.3,7.8-0.7,11.4l1.3,0.2c0,1.4,0.3,3.2-0.7,3.8l0-0.3 c-1-0.1,0,1.4-0.2,2.2C109.9,131.3,110.6,132,110.8,131.4z M98.1,65.1c-0.1-0.4-0.2-0.6-0.3-0.8C97.9,64.5,98,64.8,98.1,65.1 C98.1,65.1,98.1,65.1,98.1,65.1z M99.1,67.1c-0.1-0.3-0.3-0.4-0.5-0.2c0.1,0.5,0.3,1,0.3,1.4C99,67.8,98.9,67,99.1,67.1z M101.7,61 c0.1-0.1,0.2-0.3,0-0.8c-0.1-0.1-0.2-0.1-0.4-0.1c0,0,0.1,0,0.1,0C101.6,60.5,101.7,60.8,101.7,61z M4.7,345.1 C4.7,345.1,4.7,345.1,4.7,345.1C4.7,345.1,4.7,345.1,4.7,345.1C4.8,345,4.8,345,4.7,345.1z M3.6,345.9c0.2,0,0.3-0.2,0.5-0.3 c0-0.1,0.1-0.2,0.2-0.4c0.3-0.2,0.5-0.4,0.8-0.7c0.4-0.8,0.1-0.6,0.1-0.7c0,0.1,0.3-0.3,0.7-0.8c0.4-0.5,0.8-1.2,1.1-1.6 c-0.1-0.3-0.7,0.4-1.5,1.6C4.9,343.8,4.2,345,3.6,345.9z M8.9,344.1c0-0.2-0.1-0.5-0.2-0.9c-0.1,0-0.1,0-0.2,0.1c0,0,0,0,0,0.1 C8.6,343.6,8.7,343.8,8.9,344.1z M9.7,342.7c-0.1,0.1-0.1,0.1-0.2,0.2C9.7,343,9.7,342.9,9.7,342.7z M10.2,342.3 c-0.1,0-0.1,0.1-0.2,0.1c0,0,0,0,0,0c0,0.1,0,0.2,0.1,0.4C10.3,343,10.3,342.6,10.2,342.3z M10.5,346.2 C10.5,346.2,10.5,346.2,10.5,346.2C10.5,346.2,10.5,346.2,10.5,346.2C10.5,346.3,10.5,346.2,10.5,346.2z M10.9,346 c-0.1-0.2-0.3-0.2-0.3-0.4c0,0,0,0.2,0.1,0.5C10.8,346,10.9,346,10.9,346z M11.3,341.3c-0.3,0.3-0.7,0.6-1,1 c0.2,0.5,0.6,0.7,0.6,0.5c-0.1-0.5-0.2-0.7,0-0.7l0.1,0.4c0.3,0.3,0-0.7,0.3-0.4c-0.1-0.1,0,0.3,0.1,0.4 C11.4,342.1,11.4,341.9,11.3,341.3z M11.4,341.6c0-0.2,0-0.4,0.1-0.5c-0.1,0.1-0.1,0.1-0.2,0.2L11.4,341.6z M11.8,340.8 C11.8,340.8,11.7,340.8,11.8,340.8c0,0.1,0.1,0.2,0.1,0.3C11.8,341,11.8,340.9,11.8,340.8z M16,293.8c0,0-0.1,0.1-0.1,0.2L16,293.8z M105.1,80.1c0,0.1,0,0.1,0,0.2C105.1,80.2,105.1,80.2,105.1,80.1z M104.4,123.6c0-0.1-0.1-0.2-0.1-0.4 C104.3,123.4,104.3,123.5,104.4,123.6z M88.8,31.5c0-0.1,0-0.2-0.1-0.3C88.7,31.3,88.8,31.4,88.8,31.5z M100.6,59.5 c0-0.1-0.1-0.1-0.1-0.2c0,0.1,0,0.2-0.1,0.4c0.1,0,0.2,0.1,0.3,0.1C100.6,59.7,100.6,59.6,100.6,59.5z M12.3,339.7L12.3,339.7 C12.3,339.7,12.2,339.7,12.3,339.7C12.3,339.6,12.2,339.7,12.3,339.7z M104,114.2l0.2,0l-0.2-0.3L104,114.2z M10.1,333.8 c0.1-0.1,0.2-0.1,0.2-0.2C10.2,333.6,10.2,333.7,10.1,333.8z M11.9,327.1l0.5-1.1C12.2,326.5,12,326.9,11.9,327.1z M13.6,321.1 c-0.1-0.1-0.2-0.1-0.3-0.2l0,0L13.6,321.1z M53.9,288.1c0-0.1,0.1-0.1,0.1-0.2C54.2,287.4,54.1,287.7,53.9,288.1z M37.3,312 c0.1-0.3,0.2-0.6,0.4-0.9C37.3,311.4,37,311.7,37.3,312z M70.1,260.2C70.1,260.2,70.1,260.2,70.1,260.2c0-0.1,0.1-0.1,0.1-0.2 L70.1,260.2z M38.5,310c-0.4,0.3-0.7,0.6-0.9,1C38,310.8,38.4,310.4,38.5,310z M17.5,294.1c0,0-0.1,0-0.1,0l0.1,0.3L17.5,294.1z M17.3,293.7c0,0.2,0,0.3,0.1,0.3L17.3,293.7z M17.2,293l0.1,0.7C17.3,293.4,17.4,293.1,17.2,293z M16.6,302.7 c0-0.1-0.1-0.1-0.2-0.1L16.6,302.7z M16.2,305.1c0.1-0.6,0.7-1.4,0.6-2.3l-0.2-0.1C17,303.1,15.8,304.5,16.2,305.1z M11.7,314.9 l0.5-2c-0.3,0.3-0.7,0.7-0.7-0.2C10.3,315.1,12.2,312.3,11.7,314.9z M10.1,321.1c0.1-1.1-0.4-0.1-0.5-0.2 C9.7,321.7,9.7,321.9,10.1,321.1z M24.3,329.4l0.4,0.5C25.2,329.3,24.4,329.8,24.3,329.4z M28.3,320.8l-0.9,0.3l0.1,0.7L28.3,320.8z M35.8,319.2l-0.6,0.9l-0.2,0.3C35.2,320,35.5,319.6,35.8,319.2z M79.6,254.9l-0.8-0.1C78.7,255.4,79.4,255.9,79.6,254.9z M92.3,223.2c0.5-0.2,1-1,0.9-1.7C92.9,222.2,92.4,222.8,92.3,223.2z M110.5,122.4l0,0.6l0.3,0.7L110.5,122.4z M55.9,341.5l0.2-0.2 c0.1-0.2,0.1-0.7,0-0.6L55.9,341.5z M56,340.5c0-0.6-0.1-0.7-0.4-0.2c0-0.2,0.1-0.4,0.1-0.5c-0.2,0.4-0.4,1-0.5,1.8 c0.2-0.7,0.2-0.4,0.5-1.3c0.1-0.1,0.1,0.3,0,0.6C55.9,340.6,55.9,341,56,340.5z M42.8,336.6c0,0.1-0.1,0.1-0.1,0.2 C42.8,336.8,42.8,336.7,42.8,336.6z M41.8,335.9C41.9,335.9,41.9,335.9,41.8,335.9C41.9,335.9,41.9,335.9,41.8,335.9z M47.8,337.5 l-0.1-0.3C47.7,337.5,47.7,337.4,47.8,337.5z M54.3,341.5c0,0,0.1-0.1,0.1-0.2c0,0-0.1,0.1-0.1,0.1 C54.4,341.4,54.3,341.5,54.3,341.5z M50.1,337.1L50.1,337.1c0.1-0.1,0.1-0.2,0.1-0.3L50.1,337.1z M51.7,338.1 c0.1-0.3,0.1-0.4,0.1-0.5c0-0.1,0-0.3,0-0.5C51.8,337.1,51.7,337.8,51.7,338.1z M4,350.6c0,0.1,0,0.1,0.1,0.1 C4.1,350.7,4,350.6,4,350.6z M0.8,348.6L0.8,348.6l-0.2-0.4L0.8,348.6z M40.2,335.1C40.2,335.1,40.2,335.1,40.2,335.1 C40.3,335,40.2,335,40.2,335.1z M25.6,338.5c-0.1-0.3,0-1.1-0.2-1.4C25.7,337.6,25.3,337.9,25.6,338.5z M36.5,335.9 c0-0.1,0-0.2-0.1-0.3C36.5,335.7,36.5,335.8,36.5,335.9z M39.3,336.5L39.3,336.5C39.2,336.4,39.3,336.4,39.3,336.5z M35.1,336.6 C35.1,336.6,35.1,336.6,35.1,336.6C35.1,336.6,35.1,336.6,35.1,336.6z M35.1,336.6C35,336.5,35,336.5,35.1,336.6 C35,336.6,35,336.6,35.1,336.6C35,336.6,35,336.6,35.1,336.6z M33.6,336.8c0,0,0,0.1,0,0.1L33.6,336.8L33.6,336.8z M7.8,348.5 c-0.1-0.2-0.2-0.3-0.3-0.5C7.7,348.4,7.6,348.7,7.8,348.5z M54.3,341.4C54.3,341.4,54.3,341.4,54.3,341.4c0.1-0.1,0.1-0.2,0.1-0.3 C54.4,341.3,54.3,341.4,54.3,341.4z M17.2,344.8L17.2,344.8C17.2,344.9,17.2,344.9,17.2,344.8z M34.5,342.1 c-0.1-0.2-0.1-0.4-0.2-0.5c0,0.1,0,0.1,0,0.2L34.5,342.1z M47.9,337.6C47.9,337.6,47.9,337.7,47.9,337.6 C47.9,337.7,47.9,337.6,47.9,337.6L47.9,337.6z M16.8,345.3l-0.1-0.2L16.8,345.3L16.8,345.3z M51,340.5l0.1,0.3 C51.1,340.6,51,340.5,51,340.5z M51.7,340.9c0-0.1,0-0.2,0.1-0.3l0,0L51.7,340.9z M39.4,341C39.4,341,39.4,341.1,39.4,341 C39.4,341.2,39.4,341.1,39.4,341z M43.1,339.4c0,0.1-0.1,0.2-0.1,0.3C43.1,339.8,43.1,339.8,43.1,339.4z M35.5,342L35.5,342 C35.4,342,35.4,342,35.5,342L35.5,342z M42.8,339.7c0.1,0.1,0.1,0.1,0.2,0C42.9,339.7,42.9,339.6,42.8,339.7z M55,341.7 c0,0,0-0.1,0-0.1L55,341.7L55,341.7z M55.1,341.6L55.1,341.6C55.1,341.5,55.1,341.5,55.1,341.6z M55.2,341.4l-0.1,0.2 C55.1,341.6,55.2,341.6,55.2,341.4z M53.7,341.2c0.1,0.1,0.1,0.6,0.2,0.4l0-0.2C53.9,341.8,53.9,340.8,53.7,341.2z M52.9,338 l0.2,0.2c0-0.3,0-0.6,0.1-0.7C53,336.7,53.2,338.1,52.9,338z M52.1,337.5c0.2-0.1,0-0.4,0.1-0.5C52,337.2,52,337.3,52.1,337.5z M46.1,336.3c-0.1,0.1,0,0.2,0,0.6L46.1,336.3z M44.8,340.5l0.1-0.6l-0.2,0.2L44.8,340.5z M44.2,335.6l-0.2,0.2L44.2,335.6 L44.2,335.6z M33.9,336.9c0.1-0.1,0-1-0.1-0.8L33.9,336.9z M29.2,337.2c0.1,0,0.2,0.3,0.3,0.2C29.4,337.1,29.2,336.8,29.2,337.2z M16.1,339.1l0-0.3L16.1,339.1L16.1,339.1z" fill="#202020"/></g></svg>