<svg width="1440" height="6" viewBox="0 0 1440 6" fill="none" xmlns="http://www.w3.org/2000/svg">
<path fill-rule="evenodd" clip-rule="evenodd" d="M1440 0H0V5.12569L4.55959 4.28389L11.9359 4.32034L19.1612 3.38491L26.4728 3.25128L33.8276 3.54284L41.0961 2.94757L48.4077 2.65601L55.7408 2.59527L63.0524 2.08504L70.3209 2.87468L77.6325 2.85038L84.9226 3.1298L92.2342 2.3766L99.5458 2.63171L106.857 2.94757L114.169 3.40921L121.459 3.23913L128.728 2.49808L136.039 2.58312L143.351 2.63171L150.641 2.10934L157.952 2.92327L165.242 2.88683L172.576 2.74105L179.822 3.42136L187.177 3.0812L194.446 3.66432L201.8 3.43351L209.09 3.64003L216.402 4.24745L223.671 3.37276L231.004 4.10167L238.272 3.64003L245.605 4.02878L252.917 3.8101L260.207 3.4578L267.497 3.64003L274.852 3.23913L282.099 3.93159L289.346 4.75768L296.743 3.89514L304.034 4.46612L311.345 5.26791L318.614 4.36893L325.882 4.01663L333.28 4.35678L340.505 3.39706L347.817 3.23913L355.107 2.74105L362.462 2.7532L369.709 3.38491L377.085 2.81394L384.375 2.94757L391.687 3.26343L398.977 3.4578L406.331 3.44565L413.578 4.69693L420.825 3.60358H428.137L435.448 3.32417L442.781 3.44565L450.093 3.27558H457.426L464.716 2L472.071 2.32801L479.361 2.66816L486.5 4.10167L493.812 4.34463L501.166 4.35678L508.586 3.91944L515.811 4.49041L523.08 4.16241L530.391 4.10167L537.703 3.8344L545.036 3.82225L552.24 2.7046L559.573 2.54668L566.928 2.36445L574.304 2.48593L581.53 3.19054L588.776 4.04092L596.11 3.99233L603.508 3.54284L610.776 4.1867L618.066 4.59975L625.313 3.96803L632.668 4.57545L639.979 4.49041L647.269 4.08952L654.516 3.15409L661.914 4.06522L669.204 3.59143L676.473 3.96803L683.806 3.19054L691.117 3.21484L698.407 3.60358L705.719 3.43351L713.031 3.79796L720.321 4.2353L727.611 4.22315L734.944 4.63619L742.234 4.45397L749.502 3.54284L756.814 3.76151L764.126 3.40921L771.437 3.54284L778.727 2.92327L786.06 3.62788L793.307 2.74105L800.619 2.81394L807.952 3.26343L815.242 2.78964L822.575 2.83824L829.865 3.36062L837.177 2.59527L844.445 3.32417L851.757 2.91113L859.069 2.51023L866.38 2.71675L873.692 3.16624L881.003 3.40921L888.294 3.11765L895.583 3.27558L902.895 3.51854L910.185 3.62788L917.497 3.66432L924.808 3.4821L932.142 3.1055L939.41 3.34847L946.722 3.53069L954.012 3.90729L961.323 3.89514L968.613 4.41752L975.946 4.38108L983.258 3.60358L990.548 3.82225L997.838 4.45397L1005.15 3.53069L1012.44 4.12596L1019.75 3.78581L1027.06 3.64003L1034.37 3.8344L1041.66 3.82225L1048.95 3.91944L1056.27 3.77366L1063.56 3.82225L1070.89 3.61573L1078.2 4.63619L1085.49 4.17455L1092.78 4.47826L1100.09 3.55499L1107.38 4.01663L1114.69 4.41752L1122.01 3.64003L1129.32 3.8344L1136.63 4.36893L1143.92 4.27174L1151.21 4.78197L1158.52 3.57929L1165.81 3.82225L1173.14 3.71292L1180.43 3.62788L1187.77 4.51471L1195.08 4.57545L1202.35 3.67647L1209.64 3.57929L1216.97 3.98018L1224.26 3.37276L1231.57 3.99233L1238.88 3.78581L1246.2 3.44565L1253.44 4.55115L1260.8 4.08952L1268.11 3.91944L1275.38 4.97635L1282.71 4.41752L1290.04 4.73338L1297.29 4.01663L1304.6 4.05307L1311.91 3.91944L1319.2 3.5064L1326.56 4.40537L1333.85 3.59143L1341.16 3.72507L1348.47 4.00448L1355.74 3.16624L1363.05 2.97187L1370.34 2.80179L1377.68 3.22698L1384.99 2.66816L1392.28 2.7289L1399.59 2.69246L1406.9 3.40921L1414.19 2.42519L1421.5 3.06906L1428.81 2.61957L1436.25 2.54668L1440 3.70311V0Z" fill="#F5F3EA"/>
</svg>
