<?xml version="1.0" encoding="UTF-8"?><svg xmlns="http://www.w3.org/2000/svg" xmlns:xlink="http://www.w3.org/1999/xlink" height="268.2" preserveAspectRatio="xMidYMid meet" version="1.0" viewBox="-0.0 -0.1 430.2 268.2" width="430.2" zoomAndPan="magnify"><g fill="#202020" id="change1_1"><path d="M157,42.5c0.2,0,0.3-0.1,0.4-0.1c-0.1,0-0.1,0-0.2,0L157,42.5z" fill="inherit"/><path d="M156,42.8l-2.8,0.8C153.1,43.8,154.6,43.2,156,42.8z" fill="inherit"/><path d="M176.2,36c-0.1,0-0.2-0.1-0.4-0.1C175.9,36,176,36,176.2,36z" fill="inherit"/><path d="M60.4,91.2c0.6-0.5,0.9-0.7,0.9-0.8C60.7,90.9,60.2,91.3,60.4,91.2z" fill="inherit"/><path d="M46.5,101.5c-0.3,0.2-0.7,0.5-0.9,0.7C45.9,102,46.2,101.7,46.5,101.5z" fill="inherit"/><path d="M201.5,29.6l0.8-0.2c0.2-0.1,0.5-0.2,0.7-0.4L201.5,29.6z" fill="inherit"/><path d="M157,42.5c-0.3,0.1-0.7,0.2-1.1,0.3C156.3,42.7,156.7,42.6,157,42.5z" fill="inherit"/><path d="M244.9,23.5c0.2-0.1,0.3-0.2,0.3-0.2c0,0,0,0,0,0L244.9,23.5z" fill="inherit"/><path d="M302.6,16.6c-0.2,0.1-0.4,0.2-0.9,0.2c0.4,0,0.7-0.1,1-0.1C302.8,16.7,302.8,16.7,302.6,16.6z" fill="inherit"/><path d="M40.2,246.9c-0.1-0.1-0.3-0.3-0.4-0.4c-0.3-0.2-0.6-0.4-0.9-0.5L40.2,246.9z" fill="inherit"/><path d="M23.1,124.4c0.3-0.3,0.5-0.6,0.7-0.9C23.5,123.9,23.3,124.2,23.1,124.4z" fill="inherit"/><path d="M302.6,16.9c0.6-0.1,1.1-0.2,1.5-0.3C303.7,16.7,303.2,16.7,302.6,16.9C302.7,16.8,302.7,16.8,302.6,16.9z" fill="inherit"/><path d="M294.4,15.9c0.3,0,0.7-0.1,1-0.1L294.4,15.9z" fill="inherit"/><path d="M237.1,22.5c-0.8,0.1-1,0.6-1.3,0.8c0.4-0.2,1-0.4,1.7-0.6C237.5,22.6,237.4,22.5,237.1,22.5z" fill="inherit"/><path d="M318.3,14.8l0.6,0C318.8,14.8,318.6,14.8,318.3,14.8z" fill="inherit"/><path d="M301.7,16.9c-0.5,0-1,0.1-1.5,0.1C300.9,17,301.3,16.9,301.7,16.9z" fill="inherit"/><path d="M206.8,262.4c-3.5,0.3,5.5-1.5,0.3-0.9C207.6,261.5,202.5,262.9,206.8,262.4z" fill="inherit"/><path d="M383.3 185.9L385.9 183.5 384.7 184.6z" fill="inherit"/><path d="M2.3,199.5c0-0.2,0-0.5-0.1-0.8C2.2,198.7,2.2,198.9,2.3,199.5z" fill="inherit"/><path d="M17.2,226.6c0.2,0.3,0.4,0.6,0.9,1.1c0-0.1-0.1-0.2-0.2-0.3C17.7,227.2,17.5,227,17.2,226.6z" fill="inherit"/><path d="M20.5,230C20.5,229.9,20.5,229.9,20.5,230C20.5,229.9,20.5,230,20.5,230z" fill="inherit"/><path d="M124.3,267.6c1,0.2,3.6,0.4,5.2,0.2C127.5,267.8,125.4,267.6,124.3,267.6z" fill="inherit"/><path d="M17.2,226.6c-0.1-0.2-0.2-0.3-0.4-0.5C16.9,226.2,17.1,226.4,17.2,226.6z" fill="inherit"/><path d="M11.2,143l-0.7,1.2C10.7,143.8,11,143.4,11.2,143z" fill="inherit"/><path d="M119.9,56.6l0.1-0.5C117.9,57.2,120.1,56.3,119.9,56.6z" fill="inherit"/><path d="M10.5,144.6c-0.1,0.3-0.2,0.6-0.4,0.9C10.4,144.9,10.8,144.1,10.5,144.6z" fill="inherit"/><path d="M21.6,126c0,0,0.1-0.1,0.1-0.1C22.2,125.2,21.9,125.6,21.6,126z" fill="inherit"/><path d="M85.9 73.4L82.6 75.6 85 74z" fill="inherit"/><path d="M10,145.9c0.1-0.1,0.1-0.3,0.2-0.4C10.1,145.6,10,145.8,10,145.9z" fill="inherit"/><path d="M228.2,26.1l3.1-0.4C230,25.8,229,25.9,228.2,26.1z" fill="inherit"/><path d="M35.4,244l-0.3-0.8C33.7,242.4,33.1,242.6,35.4,244z" fill="inherit"/><path d="M19.7,224.6C19.7,224.6,19.7,224.6,19.7,224.6c0.1,0.1,0.2,0.3,0.3,0.4L19.7,224.6z" fill="inherit"/><path d="M409.4,54.3C409.4,54.4,409.4,54.4,409.4,54.3C409.4,54.4,409.4,54.4,409.4,54.3z" fill="inherit"/><path d="M429.6,101.2c0.1-0.2,0.1-0.7,0.1-1.3c0-0.9-0.2-2-0.4-3.3c-0.4-2.6-1.1-5.7-1.8-7.8l0.5,0.6 c-0.6-1.8-1.1-2.6-1.5-3.7c-0.4-1.1-0.9-2.3-1.8-4.7c-0.2-0.6-0.2-0.9-0.1-0.8c0.1,0,0.2,0.2,0.3,0.6c-0.5-1.5-0.8-2.1-1.2-2.8 c-0.4-0.8-0.9-1.7-1.8-4l1,1.6c-0.8-1.9-1.3-2.8-1.7-3.4c-0.4-0.6-0.7-1-1.4-1.9c-1.4-2.2-3.9-6.8-4.1-7.5c-0.5-0.3-2-2-3.4-4 c-0.1-0.3,0.5,0.3,0.8,0.6c-0.5-0.7-1-1.4-1.4-2c-0.5-0.6-0.9-1.2-1.4-1.7c-0.9-1.1-1.7-1.9-2.5-2.8c-0.8-0.8-1.6-1.6-2.3-2.4 c-0.8-0.8-1.5-1.6-2.3-2.5c0-0.2-0.2-0.4-0.4-0.7c3.6,3.5,6.3,6.7,6.5,7c0.3-0.3-2.6-3.6,0.1-1.3c-0.7-0.6-1.4-1.4-2.3-2.2 c-0.9-0.8-1.8-1.6-2.7-2.5c-1-0.8-1.9-1.7-2.9-2.5c-0.9-0.8-1.8-1.6-2.6-2.4c-0.1-0.2-0.3-0.3-0.3-0.5l0.4,0.3 c-0.7-0.7-1.4-1.2-2.1-1.7c-1-1-1.7-1.5-2.7-2.4c-0.2-0.6-3.9-3.3-5.8-4.6c-0.1,0.4-2.4-1.3-0.5,0.5c0-0.1,0.6,0.4,1.6,1.1 c0.3,0.2,0.6,0.4,0.8,0.5c0,0-0.1,0-0.1-0.1c0.6,0.4,1.3,0.9,2,1.5c0.7,0.6,1.5,1.2,2.4,1.9c-0.8-0.5-1.5-1-2.3-1.5 c-0.8-0.6-1.7-1.2-2.6-2c-1.1-0.5-2.3-1-2.9-1.3c-1.1-1.1-2.8-2.5-4.3-3.8c-1.5-1.2-2.9-2.2-3.1-2.6c-3-1.7-6.4-3.6-9.8-5.2 c-1.7-0.8-3.3-1.5-4.7-2.1c-1.5-0.6-2.8-1-3.8-1.3c-1.8-0.7-1.9-1.1-2.5-1.5c1,0.4,2.2,0.9,2.8,1.1c-0.9-0.3-2-0.8-3.2-1.3 c-1.2-0.5-2.4-1-3.6-1.4c-2.3-0.9-4.3-1.5-4.9-1.4c-4.5-1.9,2.7,0.5-3.6-1.7c0.3,0,0.6,0.1,0.9,0.1c-3-1.2-5.8-2.2-8.6-3 c-2.7-0.8-5.4-1.3-8.1-1.9c-0.7-0.2-1.3-0.3-2-0.5c-0.7-0.1-1.4-0.3-2.1-0.4c-1.4-0.3-2.8-0.6-4.3-0.9c-2.9-0.7-6.1-1.4-9.6-2.4 c1,0.3,1.5,0.4,1.6,0.5c-4-1-8.1-1.7-12.3-2.4c-1-0.2-2.1-0.3-3.1-0.4l-3.2-0.4c-2.1-0.2-4.2-0.6-6.3-0.7c-2.1-0.2-4.2-0.4-6.3-0.5 C282.1,1,281,1,280,0.9c-1-0.1-2.1-0.1-3.1-0.2c-4.2-0.3-8.3-0.4-12.4-0.7c-1.2-0.1-2.1-0.1-2.8,0c-0.7,0-1.3,0.1-1.9,0.1 c-1.1,0.1-1.9,0.3-3.3,0.4l-1-0.4c-0.8,0.1-1.6,0.2-2.4,0.3l-2.4,0.4c-1.7,0.2-3.3,0.3-4.9,0.3c-0.8,0-1.6,0-2.3,0 c-0.8,0-1.6,0-2.4,0.1c-3.2,0.1-6.6,0.2-10.9,1.1l1.1,0.1c-1.5,0.2-4,0.5-6,0.8c-2,0.3-3.5,0.6-3.3,0.4c-0.3,0.1-1,0.5-2.2,0.5 L219.8,4L216,4.9c-1.2,0.3-2.5,0.6-3.7,1c-2.9,0.5-2.7,0.3-2.9,0.1c-0.1-0.1-0.2-0.2-0.9-0.1c-0.3,0-0.8,0.1-1.4,0.2 c-0.3,0.1-0.7,0.1-1.1,0.2c-0.4,0.1-0.9,0.2-1.4,0.3c-3.1,0.9-8.7,2.9-7.5,2.7c1.3-0.3,3.2-0.7,3.4-0.5l-2.8,0.8 c-0.3,0.8-2.3,2,4.7,0.7c1.6-0.5,3.1-1.1,4.7-1.6l1.6,0l-2,0.4l-2,0.5c2.4-0.3,3.8-0.8,5.4-1.4c0.4,0.1,1.1,0.1,2.1-0.1 c1.6-0.5,3.1-1.1,4.7-1.6c0.6,0.2-2.1,0.9,1.2,0.5c2.2-0.7-2.3-0.2,1.4-1c2.4-0.1,1.8,0.3,4.5-0.5c0.3,0.1,0,0.2-0.7,0.4 c2.4-0.6,6-0.9,7.2-1.4c1.3,0,3.3-0.3,5.1-0.5c1.8-0.2,3.2-0.3,3.1,0.1c0.4-0.1,1.5-0.3,2.7-0.6c1.3-0.2,2.7-0.5,3.9-0.5 c-4.1,1,8.6-0.5,7.5,0.4c1.5-0.4,4.3-0.5,7.4-0.6c0.8,0,1.6,0,2.4-0.1c0.8,0,1.6,0,2.4,0c1.6,0,3.1,0,4.5-0.1 c-0.3,0-0.9,0.1-1.4,0.1c3.1,0.1,4,0.3,5.9,0.6c0.4-0.5,5.2-0.4,7.8-0.6c1.9,0.4,1.3,0.6,0.4,0.6c-0.9,0.1-2.1,0.2-1.6,0.5 c-0.2-0.5,6.6,0.1,5.3-0.4c2.9,0.6,2.5,0.4,3.9,1c0.6-0.7,2.7,0.2,5.1,0.1c4.1,0.9,1,0.8,5.6,1.2C301.5,6,301,6,300.3,6 c-0.8,0-1.8-0.1-1.8-0.1c2.3,0.3,2.9,0.3,3,0.1c0.1-0.2-0.2-0.4,0.3-0.5c5.5,0.8,2.5,0.8,4.3,1.4c3.5,0.4,6.2,0.5,8.7,1 c0.2,0.1,0.7,0.3,0.1,0.2c0.9,0.1,2.1,0.3,3.3,0.5c1.2,0.2,2.6,0.6,4,0.9c1.4,0.3,2.8,0.7,4.1,0.9c0.7,0.1,1.3,0.3,1.9,0.4 c0.6,0.1,1.2,0.2,1.7,0.3c0.3,0.1,0.4,0.2,0.5,0.3c-0.6-0.5-0.6-0.7-0.4-0.9c2,0.6,3.9,0.8,4.5,1.3c-1.2-0.4-1.4-0.3-2-0.3l2.2,0.5 c1.8,1-2.9-0.7-3-0.3c2.1,0.5,4.4,1,6.5,1.6c2.1,0.6,4.1,1.2,5.7,1.8c0.5,0.7-7.4-2.3-3.3-0.5c-1.6-0.6-3.2-1.2-4.8-1.7 c3.5,1.8-3-0.9,0.2,0.9c0.3,0.1,0.5,0.2,0.8,0.2l-1,0.5l1.9-0.2c0.8,0.3,1.6,0.5,2.2,0.7c1.1,0.3,2,0.6,2.9,0.9 c1.8,0.5,3.6,1,6.7,2.3c1.5,0.3-0.3-0.6,1.2-0.3c2.3,0.7,3.8,1.4,4.9,1.9c1.1,0.6,1.9,1,2.5,1.5c1.3,0.9,2.3,1.6,5.6,2.8 c0.9,0.2,1.5,0.3,2.5,0.6c0.5,0.2,1.1,0.4,1.8,0.7c0.7,0.3,1.6,0.8,2.6,1.5l-1.8-0.3c2.8,1.5,3.7,1.8,4.6,2.2 c0.5,0.2,0.9,0.3,1.6,0.7c0.7,0.4,1.6,1,3,1.9c-1.1-0.4-4.5-2.4-3.7-1.9c3.5,2.6,2.8,1.3,5.7,3.1l0.3,0.8c1.5,0.9,2.9,1.9,4.4,2.8 c1.5,1,3,2,4.5,3.1c3,2.1,6,4.5,8.9,7c-0.4-0.2-1.5-0.9-0.3,0.4c3.6,3.1,7.2,6.8,10.4,10.7c3.2,3.9,5.9,8.1,8.1,12.1 c0.7,0.9,1.4,1.9,2.1,2.8c0.4,0.7,0.5,1.4,0,0.7c1.5,3.2,0.3,0,1.3,1.5c0.9,1.8,0.9,2.5,0.3,1.4c1.5,2.7,3.3,6.9,4.6,11.2 c1.3,4.4,1.9,8.9,2,12.2l-0.3-1.3c0.3,5.1,1.3,5.8,0.7,10.6l0-0.9c-0.3,5.6-1.3,11.5-2.8,16.9c-1.5,5.4-3.7,10.2-5.8,14 c-0.1,0.9-1.4,3.3-2.8,5.6c-0.7,1.2-1.4,2.3-1.9,3.2c-0.5,0.9-0.8,1.6-0.7,1.8c-1,1.3-1.7,2.2-2.2,2.8c-0.6,0.7-1,1.2-1.5,1.7 c-0.5,0.6-1,1.2-1.8,2.1c-0.4,0.5-0.8,1-1.4,1.6c-0.5,0.6-1.2,1.4-1.9,2.2c-0.8,0.9-1.3,1.7-1.8,2.5c-0.5,0.8-1.1,1.8-2.1,2.9 l-0.4-0.2c-0.8,1.1-1.6,2.2-2.4,3.3l-1.9,1.2l-1.9,2.1c0.8-0.8,1.8-1.6,1.8-1.3c-0.7,0.8-1.6,1.7-2.5,2.5c-0.9,0.8-1.8,1.6-2.6,2.3 c-1.7,1.4-3,2.3-3.1,2.3c-2.5,2.4-5.1,4.8-7.7,7.1c0.1-0.3,1.4-1.4,2.4-2.4c-4,3.9-1.1,0.3-4.8,3.8c0.6-0.3-0.1,0.4-0.2,0.6 c-2.2,1.4-6.8,4.9-10.3,7.4l0.5-0.7c-1.6,1.1-3.2,2.2-4.9,3.4c-1.7,1.1-3.4,2.3-5.2,3.4c-1.8,1.2-3.6,2.3-5.4,3.5 c-0.9,0.6-1.8,1.2-2.7,1.8c-0.9,0.6-1.9,1.1-2.8,1.7c2.8-1.5,2.4-0.6,0.2,0.7l-1.1,0.1c-1.3,1.1,2.4-1.2-0.3,0.8 c-2.8,1.6-2.2,0.6-0.6-0.4l-3.3,2.1c-0.3,0,0.5-0.5,0.6-0.8c-0.6,0.5-2.2,1.3-3.8,2.1c-0.8,0.4-1.6,0.8-2.3,1.3 c-0.7,0.4-1.4,0.8-1.8,1.2l-0.3,0c-7.7,4.1-11.1,6.2-17.5,9.3c0.1,0.4-2.5,1.6-4.3,2.8c-1.2,0.5-2.4,1.1-3.7,1.6 c-1.3,0.6-2.6,1-3.9,1.6c-2.7,1.1-5.5,2.2-8.4,3.5c-4,2-1,0.8-2.8,1.8c-0.4-0.2-6.3,2.1-3.4,0.7c-3.5,1.4-5.7,2.3-8.2,3.3 c-1.2,0.5-2.5,1.1-4.1,1.7c-1.6,0.6-3.3,1.3-5.6,2.1c1-0.2,2.2-0.5,1.6-0.2c-1.6,0.6-3.8,1.2-3.6,0.9l0.4-0.2 c-1.2,0.5-2.6,1-3.9,1.5c-1.3,0.5-2.7,1-4.2,1.4c-2.9,0.8-5.8,1.6-8.7,2.3c-1.4,0.4-2.8,0.8-4.2,1.1c-1.4,0.4-2.7,0.7-4,1 c-2.6,0.6-5,1.3-7,2.1l0.5-0.2c-2.8,0.9-5.6,1.8-8.5,2.5c-4,0.8,2.3-0.8-0.7-0.4c-4.6,1.3-8.3,2.1-11.8,2.9 c-3.5,0.6-6.8,1.1-10.7,2c-1.5,0-3.6,0.3-6.1,0.6c-2.4,0.3-5.2,0.7-8,1.1c-1.4,0.2-2.8,0.4-4.2,0.7c-0.7,0.1-1.4,0.2-2.1,0.3 c-0.7,0.1-1.4,0.2-2,0.2c-2.7,0.3-5.2,0.5-7.3,0.5l0.5,0.2c-2.1,0.5-2.6,0.1-4.1,0.2c0.2,0.2,2.3,0,1,0.3c-1.1,0.1-2.2,0.3-3.4,0.4 c-1.1,0.1-2.3,0.2-3.4,0.3c-2.3,0.1-4.6,0.3-6.9,0.4c-2.3,0.1-4.6,0.3-6.9,0.3c-2.3,0-4.7,0-7,0.1c-2.3,0-4.7,0-7,0 c-2.3,0-4.7-0.1-7-0.2c-4.7-0.2-9.3-0.3-13.9-0.6c-6.7-0.4-3.9,1.2-12.3-0.1c0.8-0.1,1.6-0.2,2.4-0.3c-6.8-0.3-13.7-1.1-20.5-2.3 c-6.8-1.2-13.4-2.8-19.8-4.5c0.8,0.1,0.8,0,2.1,0.4c-0.7-0.3-1.6-0.6-2.6-1c-1-0.4-2.2-0.7-3.3-1c-2.1-0.7-4-1.2-4-1.1 c-1.9-0.8-0.4-0.4-1.5-1c-2.5-1.2-6.6-2.4-7.8-3.3c-0.1-0.1,0.2,0,0.6,0.2c-1-0.4-2.4-1.2-3.6-1.8c-0.7-0.4-1.4-0.7-1.8-0.9 c-0.4-0.2-0.5-0.2-0.1,0.1c-1.1-0.7-2.1-1.3-3.1-1.8c-1-0.6-2-1.2-2.9-1.8c-0.5-0.3-0.9-0.6-1.4-0.9c-0.5-0.3-0.9-0.6-1.3-0.9 c-0.9-0.6-1.7-1.2-2.4-1.8c-1.2-0.6-2.8-2-4.2-3.2c-1.4-1.3-2.7-2.4-3.2-2.4c0.2-0.1-0.1-0.5-0.7-1.1c-0.6-0.6-1.4-1.5-2.3-2.4 c-0.9-0.9-1.9-1.9-2.8-2.8c-0.5-0.5-0.9-0.9-1.3-1.3c-0.4-0.4-0.7-0.7-1-1c0.8,0.7-1.6-2.2-0.6-1.5c-0.6-0.7-1.1-1.3-1.6-2 c-0.5-0.6-0.9-1.2-1.3-1.7c-0.7-0.9-1.2-1.4-1.2-1c-0.4-0.7-0.8-1.4-1.2-2.2c-0.4-0.7-0.8-1.4-1.3-2.1c-0.5-0.7-0.8-1.4-1.2-2 c-0.4-0.7-0.8-1.3-1.2-1.9c-0.4-0.6-0.7-1.2-1-1.9c-0.3-0.6-0.6-1.2-0.8-1.8c-0.2-0.6-0.5-1.1-0.6-1.6c-0.1-0.5-0.2-1-0.3-1.5 c-0.3-0.6-0.5-1.2-0.8-1.8c-0.3-0.6-0.5-1.2-0.7-1.8c-0.4-1.2-0.8-2.4-1.2-3.6c-0.6-2.5-1.3-4.9-1.7-7.3c-0.9-4.9-1-9.7-0.7-14.5 c0.3,0.2,0.1,2.8,0.1,5.3c0,2.5,0.2,4.9,0.5,4.7c-0.4-4.4-0.5-8-0.3-11.5c0.2-3.5,0.7-7.1,2-11.4c0.7-2.2-0.1,1.3-0.1,2.1 c1-4.4,2.4-8.5,4.1-12.4c1.7-3.9,3.6-7.6,5.5-11.1c-0.5,0.5,0-0.9,0.8-2.4c0.8-1.8,2-3.8,2-4c-0.4,1.4,0.7-0.3,1.9-1.7 c1.1-1.4,2.2-2.6,1.3-0.6c0.6-0.9,1.2-2,0.9-1.9c1-1.2,1.4-1.5,0.6-0.1c1.7-2.3,2.1-3.1,2.6-3.8c0.5-0.7,0.9-1.4,2.6-3.4 c0.1,0.1-0.5,0.9-0.8,1.5c1.5-2.2,3-4.4,6.1-7.5c-0.1,0.3,0.3,0-0.6,0.9c5.1-5.5,8.5-9.7,15-14.9c-1.5,2.1,2.3-1.7,3-1.5l3.4-2.9 l-1.6,0.9c1.5-1.2,2.9-2.4,4.2-3.6c1.4-1.1,2.7-2.2,4.1-3.1l-2.2,1.9L64,91l-3.4,2.3c3-2.6-0.8-0.3,3.5-3.3 c-0.8,0.7,3.2-2.2,5.1-3.1l0,0c0.7-0.6,1.5-1.3,2.4-1.9c0.9-0.7,1.9-1.3,3.2-2.1c0.7-0.3-0.2,0.8,0.3,0.7c0.7-0.7,2.6-2,4.5-3.3 c2-1.3,4-2.6,4.9-3.4c-0.6,0.5-0.5,0.8-0.3,0.7l1.2-1.1c1.6-0.8,1.9-0.9,1.7-0.6c4.7-2.7-1.9,0.3,3.9-2.7c-0.4,0.3-0.2,0.2-1.1,0.8 c5.7-3.1,10.9-6.3,16.3-8.9c0.9-0.1-0.2,0.5-1.4,1c-1.1,0.6-2.2,1.2-1.2,0.9c7.6-4,15.7-8.5,23.4-11.6l-1.4,0.6 c0.4-0.6,1.8-1.1,3.7-1.7c1.8-0.6,4.1-1.3,5.9-2.3c-0.9,0.4-1.1,0.9-0.9,0.7c2.7-1,5.3-2.2,8.4-3.4c1.5-0.6,3.1-1.3,4.8-2 c1.7-0.7,3.6-1.4,5.6-2.2l-0.9,0.5c1.6-0.5,3.7-1.2,5.8-1.9c2.1-0.7,4.3-1.4,6.1-1.9c1-0.5,3-1.1,1.7-1c11-2.2,20.4-6.5,30.3-8 c-1.2,0.3-2.7,0.8-1.8,0.6l8.2-2.1c-0.7-0.2-1.1,0.1-2.9,0.2c1-0.4,3.3-1.2,5.3-1.6c-3.7,1,0.2,0.5,1.8,0.3c-0.3,0,0.2-0.3,0.1-0.3 c4.5-0.4,0.6-0.8,6.6-1.7l-0.3,0.2c2.2-0.5,4.2-1.2,6.6-1.6c1.1,0.2-2.3,0.6-2.4,1c1.7-0.3,3.3-0.9,4.9-1.3 c1.6-0.4,3.2-0.8,4.7-0.9c-1.4,0.4-3.5,0.7-4.9,1.1c3.4-0.2,3.8-0.4,6.2-0.7l-0.2,0c1.9-0.3,3.8-0.6,5.7-0.8l-1.5,0.1 c4.1-1.7,8.6-1.7,14.2-3.2c-5.5,1.5-0.9,0.5-1.2,1c1.5-0.1,3.7-0.3,3.1-0.1c2.6-0.8,4.5-0.4,8.3-1.4c0.2,0.1,2.9-0.4,2.3,0 c3.5-0.6-0.9-0.1-0.6-0.3c5.4-1.2,12.8-1.1,20.6-2.6c3.4-0.5,5.3-0.9,7.3-1.3c1.9-0.4,3.8-0.8,6.9-1.1c2.1,0-1.7,0.7-1.7,0.7 c3.4-0.1,6-0.4,9.2-0.8c-0.6,0.2,0,0.2,1,0.3c2.6-0.2,1.7-0.6,5.1-0.7c-0.6,0.2-1.3,0.5-2.5,0.8c3-0.4,6-0.9,9.2-1.2 c0.9,0.2-1.9,0.5-3,0.7c3.5-0.4,9.2-0.9,10.2-1.3l-1.7,0c0.4,0.1-0.1,0.3-0.9,0.4c-3,0.5-4.4,0.2-4.6,0l2.2-0.2 c-1.2-0.3-3.4-0.1-6,0.2c-2.5,0.3-5.3,0.8-7.6,0.9l1.8-0.8l-4.6,0.9c-1-0.1-1.7-0.3,0.5-0.6c-3.3,0-2.9,0.5-5.7,0.4 c-0.3,0-0.2-0.1,0.1-0.1l-3.2,0.5c0.6-0.2-0.6-0.4,1.4-0.5c-5.7,0.2-9.1,1.4-11.3,1.1l0.5-0.1c-7.9,1.1-0.7,0.5-6.6,1.7l-4.1-0.6 l-0.7,0.5c-0.8,0.1-2.4,0.3-2.1,0c-3,0.7,0.5,0.1-1.2,0.6c-2,0.1-4.7,0.4-7,0.7c-2.3,0.3-4.2,0.6-4.7,0.3c-1.4,0.5,3.8-0.3-0.4,0.5 c-1.3-0.6-4.8,0.8-8.4,1c1-0.6,4.4-0.9,0.8-0.7c-2,1-6.9,0.9-9.9,1.6c-0.1,0.5-6.5,1.3-11.4,2.4c0.1-0.1-2.2,0.2-5.2,0.7 c-3,0.5-6.6,1.1-8.9,1.6l0.1-0.1c-0.8,0.7-5.6,1.7-9,2.5c0.1-0.3,0.7-0.6,2.5-1.1c-1.1,0.2-2.2,0.5-3.3,0.7 c-0.7,0.3-1.7,0.7-3.8,1.2l0.7-0.6c-2.2,0.5-4.3,1.1-6.6,1.8c-2.3,0.7-4.8,1.4-7.6,1.9c-0.2,0.4,4.7-0.2-1.1,1.6 c-0.3-0.1-0.6-0.4,0.9-0.9c-0.5,0.2-1.7,0.7-2.8,0.8l2.2-1c-2.6,0.6-1.2,0.6-3.3,1.2c0-0.3-1.5,0.2-1.3-0.1 c0.5-0.2,1.8-0.4,2.5-0.7c-2.3,0.6-5.1,1.2-6,1.2c0.2,0.1,0.1,0.4-1.5,0.9c-4.3,1.3-1.6,0.1-4.1,0.7c-1,0.5-3.8,1.1-3.7,1.5 c-1.3,0.4-1.5,0.3-2,0.3c-2.1,0.9-10.2,3.4-7.6,3l0.6-0.2c-0.1,0-0.2,0.1-0.4,0.1c-1.8,0.7-3.6,1.4-5.4,2c-1.8,0.7-3.7,1.2-5.5,1.9 c-3.7,1.3-7.4,2.5-10.8,4l0-0.1c-2,0.9-4.4,1.8-6.5,2.8c-2.1,1-4.1,1.9-5.5,2.6c-1.2,0.5-3,1-2.5,0.6c-3.1,1.5-3.3,1.8-7.9,3.7 c3-1.7-1.2,0.3,3.1-1.6c-2,0.9-3.3,1.4-4.6,2c-1.3,0.6-2.5,1.3-4.6,2.5c0.6-0.5-0.2-0.3-1.3,0.3c-0.6,0.3-1.3,0.6-2,0.9 c-0.7,0.3-1.3,0.7-1.7,1c1-0.4,1.9-0.8,2.9-1.2c-2.1,1.1-3.9,2.1-5.8,3l0.8-1c-2.1,1-4,1.9-5.8,3c-1.8,1.1-3.5,2.2-5.1,3.2 c-0.8,0.5-1.6,1-2.4,1.5c-0.8,0.5-1.5,1-2.3,1.5c-1.5,0.9-3.1,1.8-4.7,2.5c-1.9,1.5,4.4-2.4,2.7-0.9c-3.6,2.1-7.6,4-8.7,4.7 c-1.2,0.7-2.1,1.3-2.8,1.8c-0.7,0.5-1.2,1-1.7,1.5c-1,0.9-2.1,1.9-4.6,3.5c0.7-0.3,1.6-0.4-2,2.4c-3.4,2.5-4.6,2.5-2.5,0.8 c0.8-0.6,1.2-0.9,1.2-0.8c1-0.9,2.4-2,1-1.1L62,89.8c-1.8,1.1-6.4,4.6-5.5,3.5c-2,1.6-1.4,1.3,0,0.4c-1.7,1.2-3.1,2.3-4.5,3.4 c-1.6,1.3-3.3,2.7-5.5,4.4c0.7-0.5,1.5-0.9,0.8-0.3c-3.2,2.5-3.8,3.2-4.1,3.7c-0.4,0.5-0.4,0.7-2.4,2.6c-2.5,1.9,0.4-1.2-3.5,2.7 c-2.6,2.2-0.8,0.2,0-0.9c-3.4,3.7-6.9,6.5-8.9,8.7l1.7-2.1c-1,1.2-1.9,2.2-2.8,3.2c0.4-0.3,0.8-0.6,1.3-0.9c-1.1,1.1-2,2.1-2.1,2 c-0.9,1.4,1.2-0.6-0.6,2.1c-1.5,1.5-3.9,5-4.7,5.3c3.8-4.6,0-0.6,1.9-3.2c-0.5,0.6-1.1,1.4-1.8,2.2c-0.2,0.2,0.1-0.2,0.3-0.6 c-1,1.2-1.7,1.9-2,2.5c-0.4,0.6-0.5,0.9-0.7,1.3c-0.3,0.7-0.6,1.5-2.5,4.2c0.3-0.8-1.3,1-1.8,1.9c1.5-2.2,1-0.8-0.1,1.3 c-2.4,3.5-2.2,4-3.3,5.9c0.4-0.7,0.9-1.4,1.3-2.1c-0.1,0.4-0.4,1.1-0.9,2c-0.4,0.9-1,2-1.7,3.3c-0.1,0,0-0.1,0-0.3 c-1.3,2.7-3.4,5.7-4.5,9.5c-0.9,1.9-0.5,0-1.3,1.7c-0.3,1.2-0.6,2.2-0.9,3c-0.3,0.8-0.5,1.5-0.7,2.1c-0.3,0.7-0.5,1.4-0.7,2.2 c-0.2,0.8-0.5,1.9-0.7,3.2c0.6-1.5,0.6-1.7,0.2,2c0.5-2.9,1-5.8,1.8-8.6c-0.4,1.9-0.7,3.7-0.9,5.6c0.3-1.3,0.6-2.7,0.9-3.9 c0.3-1.2,0.6-2.3,0.9-3.1c-0.5,2.6-0.5,2.4,0.1,1.2c-1.6,3.3-1.6,7-2.5,11l-0.8-0.2c-0.6,3.1-0.8,6-0.7,9c0.1,3.1,0.3,6.3,0.9,10.4 l-0.2-2.6c0.2,0.5,0.4,1.8,0.6,3.2c0.1,0.7,0.2,1.5,0.3,2.2c0.2,0.7,0.3,1.5,0.5,2.1c-0.3-0.2-0.1,1.5,0,2.6 c0.2-0.2,1.7,5.8,2.6,6.3l0.5,1.8c0.2,0.6,0.3,1.2,0.5,1.8c0.7,1.5,1.2,2.7,1.8,3.7c0.6,1,1.1,1.7,1.7,2.5c0.3,0.4,0.5,0.8,0.8,1.2 c0.1,0.2,0.3,0.4,0.4,0.6c0.2,0.2,0.3,0.4,0.5,0.6c0.6,0.9,1.3,1.9,2.2,3.2c-1.3-1.4,0.1,1.1-2.4-2.4c1.1,1.8,2.1,3.5,2.3,3.3 c0.3,0.6,1.2,1.7,2.2,2.9c0.5,0.6,1,1.2,1.5,1.8c0.5,0.6,0.9,1.1,1.1,1.5c0.7,0.6,1,0.7,2.6,2.4c0.1,0.1,0,0.1,0,0.1 c0.4,0.3,2.5,2.4,1.4,0.8c0.9,1.4,2.3,2.8,3.7,4.3c0.7,0.8,1.6,1.5,2.4,2.2c0.8,0.7,1.6,1.5,2.5,2.2c1.8,1.4,3.5,2.7,5.1,3.9 c0.8,0.6,1.6,1.2,2.2,1.7c0.7,0.5,1.3,1,1.9,1.5c1,0.6,2,1.3,3.1,1.8c1.1,0.6,2.2,1.2,3.3,1.8c1.1,0.6,2.2,1.1,3.3,1.6 c0.5,0.3,1,0.5,1.5,0.8c0.5,0.2,1,0.4,1.5,0.7c-0.3,0-0.1,0.1-0.8-0.2c5.2,2.6,3.5,0.8,9.5,3.4c1.5,0.8,0.7,0.5-0.3,0.2 c-1-0.3-2.1-0.8-1.1-0.3c0.2,0.6,2.1,1.2,4.4,2c1.2,0.4,2.4,0.7,3.7,1.1c1.2,0.4,2.4,0.8,3.5,1.2l-1-0.2c3.2,1.3,8,1.8,13.4,3 c0,0-0.3,0-0.1,0.1c0.9,0.1,2.1,0.2,3.4,0.3c1.3,0.2,2.7,0.3,4.1,0.5c2.9,0.4,6,0.7,8.6,0.9c-1.7,0.2-2.4-0.1-1.5,0.4 c2.4,0.2-0.6-0.7,4.1-0.2c1.5,0.4,4.9,0.8,5.3,1.3l-4.4-0.4c2.2,0.7,5.8,0.5,8.1,0.8l-0.3,0.2c3.4,0.2,5.2,0.1,7,0.1 c0.9,0,1.8-0.1,3-0.1c1.1,0,2.5,0,4.4,0.1l-0.8-0.2c4-0.5,3.3,0.4,7.4,0l1.2,0.6c1.3-0.1,3.6-0.1,6.2-0.2c2.6-0.2,5.4-0.4,7.8-0.5 c-2.7,0.5-8.2,0.9-11.7,1c0.7,0,1.5,0,2.5,0c0.5,0,1,0,1.5,0c0.5,0,1,0,1.6-0.1c2.1-0.1,4-0.2,4.7-0.4c-1.1,0.1-2.4,0.3-3.4,0.2 c3.2-0.5,7.4-0.9,12.6-1c-0.4,0.6,3,0.4,6.9,0.2c2-0.1,4.1-0.2,6-0.3c1.9-0.1,3.5,0,4.5,0.1c4.6-0.7,9.1-1.1,13.9-1.5 c4.7-0.5,9.7-1.2,15-1.9c-3.9-0.3,3.1-0.5,2.3-1.3c2.4-0.5,3.4-0.7,3.6-0.6l0,0l0,0l7.6-0.8c1.8-0.1-2.3,0.6-2,0.8 c5.4-0.9,2.3,0,6-0.5c-0.8-0.1,1.8-0.9,4.9-1.4L219,260c7.4-2.1,6.6-0.7,14.1-2.9l-2.3,0.8c1-0.3,2.3-0.6,3.9-1 c1.6-0.4,3.3-0.9,5.1-1.4c3.5-1,7-2.1,8.8-2.9c0.7-0.1,1.7-0.1,0,0.4c4.6-1.3,9.6-3,14.3-4.6c1.2-0.4,2.4-0.8,3.5-1.3 c1.1-0.4,2.2-0.8,3.3-1.2c2.1-0.8,4.1-1.4,5.9-1.9l-0.6,0.4c1.6-0.7,2.8-1.4,4.9-1.9c-0.1,0.1-0.6,0.5,0.2,0.2 c0.8-0.4,4.2-2.1,6.5-2.8l-1.8,1c2.2-0.8,4.1-1.5,5.8-2.3c1.7-0.7,3.3-1.4,4.8-2.2c3-1.5,5.8-3,9.3-4.7c0.1,0.3,1.9-0.2,4-1 c2.1-0.9,4.6-2,6.3-2.7l-0.1,0.1c2.4-1.2,4.7-2.3,6.8-3.4c1.1-0.5,2.1-1.1,3.1-1.7c1-0.6,2-1.1,2.9-1.7c1.9-1.1,3.8-2.3,5.8-3.4 c1-0.6,2-1.2,3-1.8c1-0.6,2-1.3,3.1-1.9c1.4-0.6,3.3-1.6,5.4-2.8c1.1-0.6,2.2-1.2,3.4-1.9c1.2-0.7,2.4-1.3,3.6-2.1 c2.4-1.5,4.9-3.1,7.4-4.7c2.4-1.5,4.8-3,6.9-4.3c-1.3,0.8-0.1-0.5,1.4-1.6c2-1.2,5-4.1,5.1-3.4l-0.7,0.5c1.8-0.6,5.5-3.6,8.5-5.9 l0-1c4.2-2.6,9-7,13.2-11.1c4.2-4.2,7.7-8.2,9.8-9.9c0.7-1,1.5-2,2.4-3.1c0.8-1.1,1.6-2.1,2.3-3.1l0.2,0.4c1-1.3,1.9-2.4,2.8-3.5 c0.8-1.1,1.6-2.1,2.4-3.2c1.5-2.2,3.1-4.6,5.1-8.2l-0.6,1.6c1.2-2,1.6-3.4,2-4.8c0.2-0.7,0.4-1.4,0.6-2.1c0.2-0.8,0.5-1.6,1-2.5 c0.4-0.3,0.7-0.6,1.1-0.9c1.6-3.7,3.1-7.5,4.3-11.4c1.2-3.9,1.9-7.9,2.1-12c0.1,0.1,0.2,0.4,0.1,1.7c0.1-1,0.3-2.4,0.5-3.9 c0.1-0.8,0.1-1.6,0.2-2.4c0-0.4,0.1-0.8,0.1-1.2c0-0.4,0-0.8,0-1.2C430.2,103.2,429.9,101,429.6,101.2z M391.6,37.3 c0,0-0.1-0.1-0.2-0.1c0.2,0,0.3,0.1,0.6,0.2c1.2,0.8,1.5,1.2,1.7,1.4C393.2,38.4,392.5,37.9,391.6,37.3z M398.2,46.2 c-0.7-0.6-1.3-1.2-1.7-1.5C396.9,45,397.3,45.4,398.2,46.2C398.2,46.2,398.2,46.2,398.2,46.2z M402,49.7c-0.1-0.3,0.2-0.2,0.9,0.5 c-0.4-0.3,1,1.3,1.9,2.4C404,51.8,403,50.7,402,49.7z" fill="inherit"/><path d="M260.2,19.4l5.7-0.6c-1,0-2.3-0.1,0.2-0.4C258.9,18.8,267.6,18.6,260.2,19.4z" fill="inherit"/><path d="M389.6,36.2c-0.2-0.1-0.3-0.2-0.5-0.3c0.2,0.2,0.4,0.4,0.7,0.6c0.2,0.1,0.3,0.1,0.5,0.2 C390,36.6,389.8,36.4,389.6,36.2z" fill="inherit"/><path d="M425,80.8c0.1,0.2,0.1,0.4,0.2,0.6C425.2,81.2,425.1,80.9,425,80.8z" fill="inherit"/><path d="M207.1,261.5l-0.5,0.1C206.8,261.5,206.9,261.5,207.1,261.5L207.1,261.5L207.1,261.5 C207.1,261.5,207.1,261.5,207.1,261.5z" fill="inherit"/><path d="M319.5,15.5c0.7,0,1.5-0.1,1.9-0.2L319.5,15.5z" fill="inherit"/><path d="M207.3,30.3c0,0-0.3,0-0.7,0C206.8,30.3,207,30.3,207.3,30.3z" fill="inherit"/><path d="M323.3,15.3c2-0.6,2.5-0.4,4.7-1.1c1.8-0.2,3.1,0,2.8,0.2c0.6-0.2,2.8,0,3.7-0.4c-2.3-0.2-5.2-0.1-8.3,0.4 c-0.7-0.1,0-0.2,0.1-0.3C324.3,14.4,321.9,14.9,323.3,15.3z" fill="inherit"/><path d="M331.6,12.3c-0.6-0.3-1-0.5-1.3-0.7C330.7,12,326.3,10.8,331.6,12.3z" fill="inherit"/><path d="M319.5,15.5c-0.4,0-0.8,0.1-0.9,0.1L319.5,15.5z" fill="inherit"/><path d="M101.8 67.5L98.9 69.1 101 68.3z" fill="inherit"/><path d="M318.5,15.7C318.5,15.7,318.5,15.7,318.5,15.7l-0.8,0L318.5,15.7z" fill="inherit"/><path d="M294.9,17.7l0.2-0.1c-1,0.3-5,0.1-6.5,0.5C290.2,17.9,292.7,18,294.9,17.7z" fill="inherit"/><path d="M295.4,17.3l-0.2,0.2C295.2,17.5,295.3,17.4,295.4,17.3z" fill="inherit"/><path d="M242.7,21.4c-1.9,0.4-2.4,0.5-0.1,0.3C245.7,21.2,242.6,21.6,242.7,21.4z" fill="inherit"/><path d="M33.8,238.4c0.6,0.6,1.2,1.3,2,1.9c0.2,0.1,0.4,0.2,0.5,0.2C35.4,239.9,34.6,239.1,33.8,238.4z" fill="inherit"/><path d="M14.1,143.3c-0.1,0.2-0.2,0.4-0.3,0.6C13.1,145.3,13.6,144.3,14.1,143.3z" fill="inherit"/><path d="M23.2,228.7c-0.4-0.5-1-1.1-1.5-1.7c-0.6-0.6-1.1-1.3-1.6-2c0.5,0.6,1,1.3,1.5,1.9L23.2,228.7z" fill="inherit"/><path d="M15.3,141.2c0.4-0.6,0.6-1,0.4-1c-0.2,0.5-0.5,0.9-0.7,1.4c-0.1,0.1-0.1,0.1-0.2,0.2c0,0.1-0.3,0.8-0.7,1.6 C14.5,142.7,15,141.9,15.3,141.2z" fill="inherit"/><path d="M14.8 141.8L14.8 141.8 14.8 141.8z" fill="inherit"/><path d="M69.1,86.9c-0.7,0.5-1.3,1.1-2,1.6C68.3,87.7,69.2,87.1,69.1,86.9z" fill="inherit"/><path d="M67.1,88.5c-1,0.6-2.1,1.4-3,2.1C65.3,89.9,66.3,89.2,67.1,88.5z" fill="inherit"/><path d="M399.8 164.9L399.9 165 400.4 164.3z" fill="inherit"/><path d="M52.5,250c0.2,0.1,0.5,0.2,0.6,0.2C53,250.2,52.7,250.1,52.5,250z" fill="inherit"/><path d="M238.7,4.3C238.7,4.2,238.6,4.2,238.7,4.3C238.4,4.2,238.4,4.3,238.7,4.3z" fill="inherit"/><path d="M197.1,9.8l0.6-0.2c0-0.1,0.1-0.2,0.1-0.3L197.1,9.8z" fill="inherit"/><path d="M223.3,6c-0.2,0-0.4,0.1-0.6,0.1C222.9,6.1,223.1,6.1,223.3,6z" fill="inherit"/><path d="M393.7,171.6c-0.3,0.3-0.6,0.6-0.8,0.8L393.7,171.6z" fill="inherit"/><path d="M388,35.2C388,35.2,388,35.2,388,35.2C388,35.1,388,35.2,388,35.2z" fill="inherit"/></g></svg>