<svg version="1.2" baseProfile="tiny-ps" xmlns="http://www.w3.org/2000/svg" viewBox="0 0 1024 1024" width="1024" height="1024">
	<title>circular-sh</title>
	<style>
		tspan { white-space:pre }
		.s0 { fill: #000000 } 
		.s1 { fill: #ffffff } 
	</style>
	<g id="Sh">
		<path id="Path 0" class="s0" d="m509.75 0.13c20.72-0.1 32.1 0.35 47.5 1.89c11.14 1.11 26.1 2.94 33.25 4.07c7.15 1.13 20.42 3.59 29.5 5.46c9.07 1.87 24.15 5.62 33.5 8.34c9.35 2.72 21.05 6.35 26 8.06c4.95 1.72 15.97 5.9 24.5 9.29c8.52 3.39 25.85 11.38 38.5 17.74c12.65 6.37 29.89 15.84 38.31 21.05c8.42 5.21 20.79 13.4 27.5 18.19c6.71 4.79 16.92 12.49 22.69 17.09c5.77 4.61 17.47 14.67 26 22.36c8.52 7.69 20.53 19.35 26.68 25.91c6.15 6.56 16.22 17.99 22.39 25.42c6.16 7.42 15.29 19.13 20.27 26c4.98 6.88 12.27 17.45 16.19 23.5c3.92 6.05 10.08 16.17 13.69 22.5c3.6 6.32 9.7 17.8 13.55 25.5c3.85 7.7 10.02 20.97 13.72 29.5c3.7 8.52 9.79 24.72 13.55 36c3.75 11.27 8.41 26.57 10.34 34c1.93 7.42 4.66 19.13 6.05 26c1.4 6.88 3.43 18.35 4.53 25.5c1.1 7.15 2.91 22 4.02 33c1.46 14.35 2.03 27.07 2.02 45c0 14.42-0.64 31.77-1.51 41c-0.83 8.8-2.43 22.75-3.56 31c-1.13 8.25-3.4 21.75-5.04 30c-1.64 8.25-4.59 21.07-6.54 28.5c-1.96 7.42-5.58 19.8-8.06 27.5c-2.48 7.7-6.21 18.5-8.3 24c-2.09 5.5-6.15 15.4-9.02 22c-2.87 6.6-8.37 18.3-12.21 26c-3.85 7.7-9.95 19.17-13.57 25.5c-3.62 6.32-9.93 16.67-14.03 23c-4.1 6.32-11.73 17.35-16.95 24.5c-5.22 7.15-14.93 19.52-21.58 27.5c-6.65 7.97-19.52 21.94-28.61 31.02c-9.09 9.09-22.3 21.46-29.37 27.5c-7.07 6.04-17.89 14.8-24.04 19.48c-6.15 4.67-16.12 11.86-22.15 15.97c-6.03 4.11-17.26 11.24-24.96 15.85c-7.7 4.61-23.9 13.26-36 19.22c-12.1 5.96-29.43 13.74-38.5 17.28c-9.08 3.55-19.43 7.44-23 8.66c-3.58 1.21-14.15 4.43-23.5 7.15c-9.35 2.72-24.65 6.52-34 8.44c-9.35 1.93-22.63 4.37-29.5 5.43c-6.88 1.06-21.61 2.84-32.75 3.97c-14.49 1.46-27.36 2.04-45.25 2.04c-17.61 0-30.98-0.59-45.25-2c-11.14-1.1-24.75-2.71-30.25-3.56c-5.5-0.86-18.1-3.15-28-5.11c-9.9-1.95-24.3-5.31-32-7.47c-7.7-2.16-18.95-5.53-25-7.49c-6.05-1.96-18.43-6.47-27.5-10.03c-9.08-3.56-26.4-11.34-38.5-17.29c-12.1-5.95-28.53-14.76-36.5-19.58c-7.98-4.82-18.55-11.48-23.5-14.81c-4.95-3.33-15.08-10.63-22.5-16.22c-7.43-5.59-19.35-15.27-26.5-21.5c-7.15-6.23-19.98-18.33-28.5-26.88c-8.53-8.55-20.95-22.08-27.61-30.05c-6.66-7.98-16.37-20.35-21.6-27.5c-5.22-7.15-12.85-18.18-16.95-24.5c-4.1-6.33-10.41-16.68-14.03-23c-3.62-6.33-9.73-17.8-13.58-25.5c-3.85-7.7-10.02-20.98-13.72-29.5c-3.7-8.53-9.79-24.73-13.55-36c-3.75-11.28-8.41-26.58-10.34-34c-1.93-7.43-4.66-19.13-6.05-26c-1.4-6.88-3.43-18.35-4.53-25.5c-1.1-7.15-2.91-22-4.02-33c-1.46-14.35-2.03-27.07-2.02-45c0-14.42 0.64-31.77 1.51-41c0.83-8.8 2.43-22.75 3.56-31c1.13-8.25 3.39-21.75 5.02-30c1.63-8.25 4.56-21.08 6.51-28.5c1.95-7.43 6.62-22.73 10.38-34c3.76-11.28 9.58-26.91 12.93-34.75c3.35-7.84 9.52-21.11 13.71-29.5c4.19-8.39 10.57-20.43 14.17-26.75c3.6-6.33 9.91-16.68 14.02-23c4.11-6.33 11.75-17.35 16.97-24.5c5.23-7.15 14.95-19.53 21.61-27.5c6.66-7.98 19.08-21.51 27.61-30.07c8.53-8.56 20.9-20.27 27.5-26.01c6.6-5.74 16.01-13.59 20.92-17.43c4.91-3.84 14.81-11.13 22-16.2c7.19-5.07 20.28-13.55 29.08-18.86c8.8-5.31 25.9-14.52 38-20.47c12.1-5.95 29.42-13.73 38.5-17.27c9.07-3.55 19.42-7.44 23-8.66c3.57-1.21 14.15-4.43 23.5-7.15c9.35-2.72 24.42-6.47 33.5-8.35c9.07-1.87 21-4.15 26.5-5.06c5.5-0.91 19.45-2.69 31-3.94c16.06-1.74 27.41-2.31 48.25-2.41z" />
		<path id="Path 1" class="s1" d="m710.02 102c2.73-0.04 9.15 0.47 14.27 1.13c6.03 0.78 12.15 2.59 17.38 5.16c4.44 2.18 10.9 6.79 14.35 10.25c3.46 3.46 7.73 9.36 9.5 13.11c1.77 3.75 3.89 10.18 4.71 14.27c0.99 4.92 1.28 14.82 0.88 29.17c-0.4 14.16-1.54 26.91-3.26 36.62c-1.46 8.19-4.65 23.55-7.1 34.14c-2.45 10.58-8.05 31.53-12.46 46.55c-4.4 15.02-12.65 41.27-18.33 58.34c-5.78 17.38-15.34 42.5-21.72 57.1c-6.27 14.34-21.73 46.18-34.36 70.75c-12.63 24.58-29.71 58.37-52.9 105.51l0.63 27.93c0.44 19.82 1.14 29.37 2.41 32.89c0.98 2.73 1.6 7.34 1.38 10.24c-0.23 2.9-0.13 5.28 0.21 5.28c0.34 0 1.46-1.68 2.48-3.72c1.02-2.05 3.54-9.73 5.6-17.07c2.06-7.34 3.73-14.32 3.72-15.52c-0.01-1.38-0.69-1.94-1.87-1.55c-1.02 0.34-2.12 0.2-2.43-0.31c-0.31-0.51 0.24-2.19 1.24-3.72c1.21-1.87 2.63-2.59 4.29-2.17c2.21 0.55 2.41 0.14 1.86-3.72c-0.35-2.48-0.09-4.34 0.62-4.34c0.68 0 2.01-1.54 2.96-3.41c0.95-1.88 5.37-13.19 9.82-25.14c4.46-11.95 10.03-26.19 12.38-31.65c2.35-5.46 7.22-15.8 10.81-22.96c3.59-7.17 8.8-16.94 11.58-21.72c2.78-4.78 7.66-11.48 10.86-14.9c3.5-3.74 8.72-7.55 13.11-9.58c4.01-1.86 10.65-3.73 14.75-4.17c4.27-0.46 9.7-0.21 12.72 0.58c3.65 0.95 6.43 2.81 9.01 6.03c2.05 2.56 4.82 8.01 6.15 12.1c1.33 4.1 2.72 9.4 3.1 11.79c0.38 2.39 1.54 21.38 2.59 42.2c1.04 20.82 2.73 45.4 3.74 54.62c1.01 9.22 2.69 21.78 3.74 27.93c1.05 6.14 2.81 14.52 3.92 18.62c1.11 4.1 2.95 9.68 4.09 12.41c1.14 2.73 3.14 5.99 4.44 7.25c1.68 1.62 3.27 2.04 5.47 1.42c1.71-0.47 6.18-2.98 9.93-5.56c3.75-2.59 10.08-7.7 14.05-11.35c3.97-3.66 12.69-14.47 19.38-24.03c6.69-9.56 13.07-17.52 14.19-17.69c1.33-0.2 2.31 0.88 2.81 3.1c0.43 1.88 0.08 6.77-0.76 10.86c-0.85 4.1-3.47 13.31-5.83 20.48c-2.36 7.17-6.45 17.5-9.08 22.96c-2.63 5.46-7.2 12.41-10.15 15.44c-2.95 3.03-7.88 6.65-10.95 8.05c-4.14 1.88-8.16 2.54-15.52 2.54c-7 0-12.31-0.81-18-2.75c-4.44-1.51-11.57-4.86-15.85-7.43c-4.28-2.57-10.63-7.47-14.12-10.89c-4.16-4.07-7.99-9.62-11.13-16.14c-2.63-5.46-6.2-15.52-7.94-22.34c-1.74-6.83-3.98-18.7-4.99-26.38c-1.01-7.68-2.43-25-3.16-38.48c-0.73-13.48-1.71-31.5-3.02-55.55l-2.79 4.65c-1.54 2.56-4.05 5.14-5.59 5.73c-1.97 0.75-3.04 2.49-3.64 5.9c-0.47 2.65-1.82 5.66-3 6.69c-1.18 1.02-3.75 4.1-5.7 6.83c-2.74 3.82-3.54 6.32-3.52 10.86c0.03 5.18-0.56 6.53-4.9 11.17c-3.55 3.8-4.94 4.67-4.97 3.1c-0.02-1.19 1.4-5.94 3.15-10.55c1.75-4.61 8.45-19.41 14.9-32.89c6.44-13.48 11.44-24.93 11.1-25.45c-0.34-0.51-0.84-0.65-1.1-0.31c-0.26 0.34-3.69 7.04-7.61 14.9c-3.92 7.85-10.46 21.82-14.54 31.03c-4.07 9.22-10.5 24.3-14.28 33.52c-3.78 9.22-8.5 21.51-10.49 27.31c-1.99 5.8-3.37 11.11-3.08 11.79c0.29 0.68 2.05-2.11 3.9-6.21c1.85-4.1 5.57-13.31 8.27-20.48c2.69-7.17 5.44-13.59 6.1-14.27c0.79-0.82 1.2-0.39 1.19 1.24c-0.01 1.37-6.17 27.34-13.69 57.72c-7.64 30.84-14.51 61.54-15.57 69.51c-1.04 7.85-2.72 18.46-3.73 23.58c-1.01 5.12-2.67 11.96-3.68 15.21c-1.11 3.55-3.2 6.9-5.25 8.42c-1.88 1.39-5.09 2.5-7.14 2.47c-2.05-0.03-6.52-1.35-9.93-2.94c-3.41-1.59-8.02-4.65-10.24-6.82c-3.42-3.33-4.04-4.83-4.06-9.83c-0.02-3.24-1.13-8.27-2.48-11.17c-1.35-2.9-3.01-5.55-3.7-5.9c-0.68-0.34-1.79 0.36-2.46 1.55c-1.06 1.9-1.38 1.93-2.49 0.31c-0.7-1.02-2.61-6.05-4.24-11.17c-1.64-5.12-4.67-17.13-6.75-26.69c-2.08-9.56-4.62-23.24-5.66-30.41c-1.04-7.17-2.44-19.74-3.11-27.93c-0.68-8.19-1.6-26.63-2.06-40.96c-0.46-14.57-0.19-43.31 0.62-65.17c0.8-21.51 2.53-51.39 3.85-66.41c1.32-15.02 3.54-35.97 4.95-46.55c1.41-10.58 4.48-30.41 6.83-44.07c2.35-13.65 6.49-34.88 9.19-47.17c2.71-12.29 7.5-32.12 10.65-44.07c3.15-11.95 8.55-30.94 12-42.2c3.45-11.26 10.18-31.65 14.95-45.31c4.77-13.65 11.07-29.57 13.99-35.38c2.92-5.8 7.79-13.9 10.81-18c3.02-4.1 8.25-10.19 11.62-13.54c3.37-3.35 7.79-6.79 9.84-7.65c2.05-0.85 5.4-1.28 7.45-0.94c2.41 0.39 4.38-0.08 5.59-1.34c1.02-1.07 3.54-2.46 5.59-3.09c2.05-0.63 5.96-1.18 8.69-1.22z" />
		<path id="Path 2" fill-rule="evenodd" class="s0" d="m719.09 119.19c1.84-0.02 4.89 1.09 6.76 2.48c1.88 1.39 4.47 4.62 5.76 7.18c1.29 2.56 3.03 7.17 3.87 10.24c0.83 3.07 1.59 11.54 1.68 18.83c0.09 7.28 0.59 13.71 1.1 14.27c0.51 0.57 1.35 0.57 1.86-0.01c0.51-0.57 1.07-4.62 1.24-9c0.17-4.38 0.87-7.96 1.55-7.96c0.68 0 1.6 1.54 2.04 3.41c0.44 1.88 0.48 8.44 0.08 14.59c-0.4 6.14-2.71 25.42-5.14 42.82c-2.43 17.41-5.06 33.61-5.83 36c-0.78 2.39-2.04 5.13-2.8 6.09c-0.76 0.96-1.48 4.87-1.58 8.69c-0.11 3.82-2.25 13.93-4.77 22.46c-2.51 8.53-6.68 20.82-9.25 27.31c-2.57 6.49-6.46 14.59-8.63 18c-3.13 4.92-3.55 6.27-2.03 6.52c1.05 0.17 1.91 1.29 1.91 2.48c0 1.19-0.59 4.41-1.31 7.14c-0.71 2.73-9.45 21.72-19.4 42.2c-9.96 20.48-27.47 56.23-38.92 79.44c-11.45 23.21-21.69 43.32-22.76 44.69c-1.85 2.37-1.94 2.25-1.97-2.48c-0.02-2.73 0.8-16.42 1.82-30.41c1.02-14 2.7-34.1 3.74-44.69c1.04-10.58 3.28-30.13 4.99-43.45c1.71-13.31 4.54-32.86 6.29-43.45c1.75-10.58 5.08-28.74 7.4-40.34c2.32-11.61 6.49-30.04 9.26-40.96c2.77-10.92 7.6-28.24 10.74-38.48c3.13-10.24 8.21-25.32 11.27-33.52c3.06-8.19 8.89-22.44 12.94-31.65c4.05-9.22 11.28-23.88 16.05-32.58c7.76-14.16 9.03-15.83 12.03-15.87zm15.14 1.28c0.68 0 2.69 3.21 4.45 7.14c1.77 3.93 3.58 8.69 4.03 10.58c0.45 1.89 0.4 3.43-0.11 3.41c-0.51-0.02-2.89-4.08-5.28-9.03c-2.39-4.95-4.35-9.7-4.34-10.55c0-0.85 0.57-1.55 1.25-1.55z" />
		<path id="Path 3" class="s1" d="m498.96 121.74c1.39 0.01 5.04 1.7 8.11 3.76c3.07 2.05 6.7 3.74 8.07 3.74c1.37 0 4.72 1.09 7.45 2.41c2.73 1.32 6.64 2.41 8.69 2.43c2.15 0.02 4.64 1.08 5.9 2.52c1.19 1.37 3.43 2.48 4.97 2.46c1.54-0.02 5.03 1.56 7.76 3.51c2.73 1.95 8.32 6.94 12.41 11.09c4.1 4.15 10.24 12.18 13.65 17.86c3.41 5.68 7.98 15.09 10.14 20.91c2.16 5.82 4.82 14.92 5.9 20.21c1.08 5.29 1.96 14.51 1.96 20.48c0 5.97-0.87 16.17-1.92 22.65c-1.05 6.49-2.74 13.47-3.75 15.52c-1.01 2.05-2.71 6.8-3.79 10.55c-1.08 3.75-4.75 13.81-8.15 22.34c-3.41 8.53-9.55 22.5-13.65 31.03c-4.1 8.53-12.85 25.52-19.44 37.74c-6.93 12.86-14.33 24.82-17.56 28.38c-4.97 5.48-6.27 6.23-11.79 6.8c-6.19 0.64-6.23 0.63-15.52-7.58c-5.12-4.52-9.73-8.23-10.24-8.23c-0.51-0.01-2.02-1.83-3.35-4.04c-1.33-2.22-4.42-11.3-6.88-20.17c-2.46-8.88-5.57-18.65-6.93-21.72c-1.35-3.07-2.44-6.14-2.41-6.83c0.03-0.68-1.36-3.2-3.09-5.59c-1.73-2.39-3.13-4.76-3.12-5.28c0.01-0.51 0.58-0.93 1.26-0.93c0.68 0 4.31 3.21 8.06 7.14c3.75 3.93 6.82 7.84 6.83 8.69c0 0.85 1.12 1.55 2.49 1.55c1.56 0 4.68-2.79 8.38-7.5c3.24-4.13 7.57-10.46 9.62-14.09c2.05-3.62 4.56-7.54 5.59-8.7c1.22-1.39 2.08-1.64 2.48-0.72c0.34 0.77 2.37-1.3 4.5-4.59c2.13-3.29 6.28-10.17 9.22-15.29c2.94-5.12 9.19-17.97 13.89-28.55c4.7-10.58 10.51-24.83 12.9-31.65c2.39-6.83 5.42-16.88 6.74-22.34c1.32-5.46 2.4-12.03 2.4-14.59c0-2.56-0.55-5.77-1.23-7.14c-0.68-1.37-3.34-3.41-5.9-4.55c-3.59-1.6-9.76-2.2-27-2.63c-13.35-0.34-26.84 0.02-33.52 0.89c-6.14 0.8-19.55 3.13-29.79 5.18c-11.66 2.33-22.57 5.39-29.17 8.19c-5.8 2.45-15.58 6.21-21.72 8.34c-6.14 2.14-12.99 5.41-15.21 7.27c-2.22 1.86-4.73 3.37-5.59 3.35c-0.85-0.02-7.94 3.47-15.76 7.76c-7.81 4.29-17.31 10.66-21.1 14.15c-3.79 3.49-9.41 7.62-12.48 9.17c-3.07 1.55-8.1 4.52-11.17 6.58c-3.07 2.07-19 17.21-35.4 33.66c-16.4 16.44-33.37 34.36-37.73 39.83c-4.35 5.46-10.55 13.84-13.77 18.62c-3.22 4.78-10.07 16.51-15.23 26.07c-5.16 9.56-10.58 21.57-12.05 26.69c-1.57 5.47-2.95 14.68-3.35 22.34c-0.49 9.35-0.1 16.19 1.38 24.21c1.16 6.3 3.76 14.69 5.96 19.24c2.63 5.43 6.78 10.91 12.7 16.76c4.83 4.78 15.2 13.51 23.04 19.39c7.84 5.89 19.84 14.35 26.67 18.8c6.83 4.45 29.73 18 50.89 30.09c21.16 12.1 41.69 24.17 45.62 26.82c3.93 2.65 7.14 5.66 7.14 6.68c0 1.02 0.62 2.28 1.38 2.79c0.76 0.51 1.74 0.18 2.17-0.74c0.61-1.3 1.42-1.37 3.59-0.31c1.54 0.75 7.68 5.49 13.65 10.53c5.97 5.04 14.31 12.72 18.51 17.07c4.21 4.35 8.89 10.13 10.4 12.87c1.51 2.73 7.33 10.83 12.93 18c5.6 7.17 13.17 17.5 16.83 22.96c3.65 5.46 8.49 13.84 10.75 18.62c2.82 5.98 4.69 12.56 5.97 21.1c1.03 6.83 1.87 15.07 1.88 18.31c0 3.24-0.86 9.95-1.92 14.9c-1.06 4.95-3.61 13.19-5.67 18.31c-2.06 5.12-5.47 12.38-7.57 16.14c-2.1 3.75-6.91 11.02-10.69 16.14c-3.78 5.12-12.07 15.59-18.44 23.27c-6.36 7.68-11.98 13.94-12.5 13.92c-0.51-0.03-4.84 3.2-9.62 7.16c-4.78 3.97-15.67 11.87-24.21 17.57c-8.53 5.7-20.54 12.76-26.69 15.7c-7.1 3.39-14.34 5.82-19.86 6.67c-4.78 0.73-14.55 1.9-21.72 2.59c-7.17 0.69-17.36 1.26-22.65 1.25c-7.89-0.01-12.36-0.91-24.83-5.03c-8.36-2.76-17.58-6.39-20.48-8.07c-2.9-1.68-5.69-3.95-6.21-5.06c-0.51-1.1-3.72-3.71-7.14-5.8c-3.41-2.09-7.78-5.51-9.71-7.62c-1.93-2.1-4.83-6.06-6.45-8.79c-1.62-2.73-4.97-9.99-7.43-16.14c-2.46-6.14-4.8-14.24-5.19-18c-0.54-5.18-0.18-7.87 3.73-15.52l3.22 9.72c1.77 5.34 4.93 11.77 7.03 14.27c2.65 3.17 5.86 5.22 10.55 6.74c3.71 1.2 10.93 2.72 16.05 3.38c5.12 0.66 13.22 1.2 18 1.21c4.78 0 10.64-0.49 13.03-1.1c2.39-0.61 11.33-3.58 19.86-6.6c8.53-3.02 21.94-8.26 29.79-11.64c7.85-3.38 20.14-10.02 27.31-14.75c7.17-4.73 16.39-11.35 20.48-14.7c4.1-3.35 11.55-10.07 16.56-14.92c5.01-4.85 12.3-12.73 16.19-17.51c3.89-4.78 8.84-11.48 10.99-14.9c2.15-3.41 5.27-9.28 6.94-13.03c1.66-3.75 4.3-11.02 5.85-16.14c1.89-6.21 2.85-12.61 2.89-19.24c0.04-6.12-0.63-11.53-1.75-14.09c-1.1-2.52-4.2-5.7-7.89-8.07c-3.34-2.15-6.55-5.17-7.14-6.7c-0.59-1.56-2.56-3.16-4.47-3.62c-1.88-0.46-5.93-2.59-9-4.74c-3.07-2.15-6.28-5.41-7.14-7.24c-0.85-1.83-3.37-4.44-5.59-5.8c-2.22-1.36-5.01-2.48-6.21-2.48c-1.19 0-2.59-0.76-3.1-1.69c-0.51-0.92-2.19-2.32-3.72-3.1c-1.54-0.78-3.77-1.43-4.97-1.43c-1.19 0-4.27-0.56-6.83-1.24c-2.56-0.68-7.17-3.47-10.24-6.2c-4.26-3.78-7.21-5.26-12.41-6.21c-4.78-0.87-7.2-1.99-8.07-3.72c-0.92-1.84-2.45-2.47-5.9-2.43c-2.76 0.03-5.29-0.73-6.21-1.86c-1.07-1.32-1.17-2.49-0.31-3.78c0.99-1.48-0.08-2.62-5.28-5.58c-3.58-2.04-8.47-4.01-10.86-4.37c-2.39-0.36-6.58-1.34-9.3-2.18c-3.36-1.04-5.96-3-8.07-6.1c-2.62-3.85-3.43-4.34-5.15-3.1c-1.7 1.22-3.11 0.58-8.38-3.81c-4.53-3.77-6.34-6.16-6.34-8.38c0-2.44-3.36-5.97-15.83-16.57c-8.7-7.41-20.54-18.44-26.3-24.52c-5.76-6.08-15.16-16.91-20.89-24.08c-5.73-7.17-11.85-15.83-13.59-19.24c-1.75-3.41-5.55-12.35-8.45-19.86c-2.9-7.51-6.21-16.73-7.35-20.48c-1.14-3.75-2.91-11.3-3.93-16.76c-1.02-5.46-2.18-19.15-2.56-30.41c-0.59-17.3-0.36-21.73 1.51-28.55c1.22-4.44 4.56-13.93 7.42-21.1c2.87-7.17 7.6-17.78 10.51-23.58c2.91-5.8 7.81-14.46 10.88-19.24c3.07-4.78 9.08-13.16 13.35-18.62c4.27-5.46 13.44-16.07 20.38-23.58c6.94-7.51 13.29-13.88 14.11-14.16c0.82-0.28 5.41-4.44 10.19-9.25c4.78-4.81 13.72-12.91 19.86-18.02c6.14-5.1 14.24-11.22 18-13.6c3.75-2.38 10.42-7.17 14.82-10.65c4.4-3.48 13.89-9.54 21.1-13.46c7.21-3.92 19.81-10.56 28.01-14.75c8.19-4.19 21.88-10.35 30.41-13.69c8.53-3.35 21.38-7.74 28.55-9.76c7.17-2.02 18.62-4.81 25.45-6.2c6.83-1.39 18.84-3.08 26.69-3.77c9.52-0.83 14.88-1.86 16.09-3.07c1-1 2.95-1.82 4.34-1.8z" />
		<path id="Path 4" fill-rule="evenodd" class="s0" d="m443.68 146.06c0.39 0.27 0.43 0.76 0.09 1.11c-0.34 0.34-8.72 2.81-18.62 5.49c-9.9 2.67-24.7 7.73-32.89 11.24c-8.19 3.51-20.48 8.91-27.31 11.99c-6.83 3.08-17.44 8.57-23.58 12.19c-6.14 3.62-13.41 8.34-16.14 10.49c-2.73 2.15-8.04 6.29-11.79 9.21c-3.75 2.92-11.44 8.48-17.07 12.38c-5.63 3.89-11.08 7.07-12.1 7.07c-1.02 0-6.15 4.89-11.4 10.86c-5.25 5.97-11.53 12.19-13.96 13.82c-2.43 1.63-7.64 6.09-11.58 9.93c-3.93 3.84-7.14 7.81-7.13 8.84c0.01 1.02-1.1 2.56-2.47 3.41c-1.37 0.85-7.05 7.28-12.63 14.27c-5.58 7-13.24 17.47-17.03 23.27c-3.78 5.8-9.85 16.97-13.48 24.83c-3.63 7.85-6.94 14.55-7.35 14.9c-0.42 0.34-0.35-1.06 0.15-3.1c0.5-2.05 3.66-9.87 7.02-17.38c3.37-7.51 9.04-18.27 12.62-23.9c3.57-5.64 10.85-15.69 16.18-22.34c5.33-6.65 17.89-20.96 27.93-31.79c10.03-10.83 19.92-20.86 21.97-22.28c2.05-1.43 7.54-6.25 12.2-10.72c7.21-6.91 9.07-8.08 12.41-7.81c2.26 0.18 5.65-0.74 7.97-2.17c2.52-1.55 3.8-3.19 3.41-4.35c-0.39-1.18 0.74-2.54 3.1-3.72c2.05-1.02 3.72-2.42 3.72-3.1c0-0.68 1.12-0.96 2.48-0.62c1.84 0.46 2.97-0.34 4.34-3.1c1.38-2.77 3.38-4.19 7.76-5.52c3.24-0.99 6.73-2.68 7.76-3.76c1.02-1.08 3.4-2.22 5.28-2.54c1.88-0.32 3.61-1 3.86-1.52c0.24-0.51 4.29-2.81 9-5.11c4.71-2.3 15.26-6.94 23.45-10.3c8.19-3.37 18.25-7.31 22.34-8.77c4.1-1.45 14.95-4.71 24.12-7.25c9.17-2.53 16.99-4.39 17.38-4.12zm62.46 10.61c6.21-0.11 11.13 0.33 11.48 1.04c0.34 0.68-0.64 1.49-2.17 1.79c-1.54 0.3-4.89 0.86-7.45 1.24c-3 0.45-4.65 1.35-4.65 2.55c0 1.02-0.7 2.24-1.55 2.7c-0.85 0.46-6.44 1.16-12.41 1.55c-5.97 0.39-10.88 0.33-10.9-0.15c-0.02-0.47 0.67-1.23 1.55-1.68c1.06-0.55 1.18-1.23 0.35-2.02c-0.79-0.76-3.92-0.64-8.69 0.34c-5.57 1.15-8.5 2.58-11.6 5.67c-3.21 3.19-5.19 4.13-13.22 4.08l3.1-2.37c1.71-1.3 2.68-2.83 2.16-3.39c-0.52-0.56-3.31 0.07-6.21 1.4c-2.9 1.33-5.55 2.57-5.89 2.76c-0.34 0.19 0.08 1.2 0.93 2.24c1.33 1.62 0.79 2.09-3.72 3.27c-2.9 0.76-8.17 1.74-11.71 2.17c-3.54 0.43-7.17 1.45-8.07 2.26c-1.26 1.13-2.12 1.13-3.73 0c-1.62-1.14-2.81-1.12-5.28 0.08c-1.75 0.85-3.18 2.39-3.18 3.41c0 1.02-0.28 1.86-0.62 1.86c-0.34 0-1.74-0.56-3.1-1.24c-1.81-0.9-3.33-0.73-5.59 0.62c-1.71 1.02-3.1 2.7-3.1 3.72c0 1.16-5.86 4.68-15.52 9.31c-11.89 5.71-16.02 7.17-17.69 6.24c-1.19-0.66-2.59-0.8-3.11-0.31c-0.51 0.49 0.04 1.96 1.24 3.26c2.11 2.29 2.06 2.34-1.55 1.59c-3.11-0.64-3.98-0.27-5.28 2.29c-0.85 1.68-3.37 4.18-5.59 5.54c-2.22 1.36-4.73 2.48-5.59 2.48c-0.99 0-1.33-1.11-0.93-3.1c0.34-1.71 0.38-3.1 0.09-3.1c-0.29 0-1.41 0.84-2.48 1.86c-1.07 1.02-1.95 3.26-1.95 4.97c0 2.06-1.57 4.44-4.65 7.06c-2.56 2.17-7.17 5.53-10.24 7.47c-3.07 1.93-6 3.5-6.52 3.5c-0.51-0.01-0.93-0.86-0.93-1.88c0-1.02-0.56-1.58-1.24-1.24c-0.68 0.34-1.24 2.3-1.24 4.34c0 2.05-0.62 4.14-1.38 4.65c-0.76 0.51-1.74 0.18-2.17-0.74c-0.61-1.3-1.42-1.37-3.59-0.31c-1.54 0.75-2.79 2.48-2.79 3.85c0 1.37-0.7 2.9-1.55 3.41c-0.85 0.51-3.79 1.49-6.52 2.17c-4.74 1.19-4.98 1.48-5.28 6.52c-0.25 4.31-1.05 5.84-4.34 8.34c-2.22 1.69-4.73 3.08-5.59 3.1c-0.85 0.02-1.27-0.52-0.93-1.21c0.34-0.68 0.06-1.24-0.62-1.24c-0.68 0-3.34 1.91-5.9 4.25c-2.56 2.33-4.25 4.71-3.75 5.28c0.49 0.57 2.87-0.51 5.28-2.38c2.41-1.88 4.39-2.99 4.4-2.48c0.01 0.51-4.25 5.4-9.49 10.86c-9.14 9.54-9.47 9.76-8.51 5.59c0.82-3.52 0.67-4.21-0.75-3.61c-0.97 0.4-2.07 2.36-2.44 4.34c-0.37 1.99-2.05 5.8-3.72 8.48c-1.67 2.68-4.5 6.03-6.27 7.45c-1.77 1.42-4.99 5.24-7.14 8.48c-2.15 3.24-4.53 6.32-5.29 6.83c-0.76 0.51-1.89 0.09-2.51-0.93c-0.96-1.59-1.39-1.51-2.99 0.62c-1.02 1.37-1.86 3.88-1.87 5.59c0 1.71-1.11 5.48-2.46 8.38c-1.35 2.9-3.01 5.55-3.7 5.9c-0.68 0.34-1.22 0.2-1.2-0.31c0.02-0.51 0.84-2.33 1.82-4.03c0.98-1.71 1.77-3.94 1.77-4.97c0-1.08-1.87 0.22-8.88 8.07l2.8-5.59c1.54-3.07 5.61-9.78 9.05-14.9c3.43-5.12 12.49-17.13 20.13-26.69c7.64-9.56 16.34-19.77 19.34-22.7c3-2.92 9.36-9.13 14.14-13.79c4.78-4.66 10.36-9.53 12.41-10.81c2.05-1.29 4.84-3.7 6.21-5.35c1.37-1.66 6.95-6.48 12.41-10.71c5.46-4.23 14.4-10.58 19.86-14.1c5.46-3.52 10.78-6.39 11.82-6.37c1.04 0.02 4.11-2.2 6.83-4.94c2.72-2.74 5.64-4.98 6.49-4.97c0.85 0.01 7.28-3.01 14.27-6.7c7-3.7 17.47-8.39 23.27-10.43c5.8-2.04 15.58-4.67 21.72-5.85c7.09-1.36 13.89-3.62 18.62-6.2c4.1-2.23 12.48-5.2 18.62-6.59c6.14-1.39 17.04-3.39 24.21-4.44c7.17-1.06 14.99-2.12 17.38-2.37c2.39-0.24 9.23-0.53 15.21-0.64zm250.19 22.77c0.21 3.41-0.22 10.95-0.96 16.76c-0.74 5.8-1.61 10.83-1.93 11.17c-0.32 0.34-0.85 0.34-1.18 0c-0.32-0.34-0.05-6.49 0.61-13.65c0.66-7.17 1.62-14.71 2.14-16.76c0.85-3.35 0.98-3.11 1.32 2.48zm-458.73 49.08c0.51-0.03 0.93 0.51 0.93 1.19c0 0.68-2.37 2.91-5.28 4.95c-2.9 2.04-5.55 3.43-5.9 3.1c-0.34-0.33 1.61-2.54 4.34-4.9c2.73-2.36 5.38-4.32 5.9-4.34zm-14.38 12.83c0.23 0.43-2.8 3.8-6.72 7.49c-3.93 3.69-7.42 6.44-7.76 6.12c-0.34-0.33 2.68-3.69 6.72-7.49c4.04-3.79 7.53-6.55 7.76-6.12zm464.32 0.15c0.24 0.68-1.02 7.11-2.8 14.27c-1.78 7.17-7.04 24.48-11.67 38.48c-4.64 14-13.33 38.29-19.33 54c-5.99 15.7-11.94 31.06-13.22 34.14c-1.28 3.07-2.6 5.17-2.93 4.65c-0.33-0.51 3.64-11.68 8.83-24.83c5.19-13.14 13.79-37.02 19.12-53.07c5.33-16.04 12.04-37.55 14.91-47.79c2.88-10.24 5.55-19.18 5.94-19.86c0.47-0.83 0.86-0.83 1.15 0zm-487.6 22.28c0.4 0.32-4.33 6.05-10.5 12.73c-6.17 6.68-13.1 14.39-15.39 17.12c-2.29 2.73-6.04 7.06-8.33 9.62c-2.29 2.56-4.46 4.52-4.83 4.34c-0.37-0.17 2.81-4.78 7.08-10.24c4.26-5.46 13.04-15.38 19.5-22.04c6.46-6.66 12.08-11.85 12.47-11.53zm421.66 159.26c0.27 0.85-0.36 3.23-1.38 5.28c-1.02 2.05-2.17 3.58-2.54 3.41c-0.37-0.17 0.25-2.54 1.38-5.28c1.13-2.73 2.27-4.27 2.54-3.41zm-6.14 13.34c0.29 0.68-4.31 11.3-10.22 23.58c-5.91 12.29-11.01 21.51-11.34 20.48c-0.33-1.02 4.27-11.64 10.22-23.58c5.95-11.95 11.06-21.16 11.34-20.48zm32.17 53.08c0.17 0.16-5.11 11.19-11.74 24.5c-6.62 13.31-16.02 34.26-20.89 46.55c-4.86 12.29-11.91 31.28-15.65 42.2c-3.74 10.92-10.78 32.29-15.63 47.48c-4.85 15.19-9.49 28.04-10.31 28.55c-1.12 0.7-1.26-0.44-0.56-4.65c0.51-3.07 3.11-13.69 5.79-23.58c2.67-9.9 8.27-28.89 12.43-42.2c4.16-13.31 10.66-32.03 14.44-41.58c3.78-9.56 10.62-25.2 15.2-34.76c4.58-9.56 11.01-21.57 14.29-26.69c3.28-5.12 7.39-10.84 9.14-12.71c1.75-1.87 3.32-3.27 3.49-3.1zm-60.96 5.16c0.07 0.37-0.55 3.05-1.39 5.97c-0.84 2.92-2.41 6.14-3.49 7.17c-1.08 1.02-2.23 1.44-2.55 0.93c-0.33-0.51 1.18-4.04 3.36-7.83c2.17-3.8 4.01-6.6 4.08-6.23zm86.41 68.99c0.56 5.8 1.64 18.09 2.42 27.31c0.77 9.22 2.18 21.23 3.13 26.69c0.95 5.46 2.13 11.89 2.64 14.27c0.56 2.68 0.46 4.05-0.27 3.58c-0.65-0.42-2.42-5.17-3.93-10.55c-1.51-5.38-3.32-14.53-4.04-20.33c-0.71-5.8-1.22-19.77-1.13-31.03c0.15-18.94 0.24-19.69 1.18-9.93zm-282.98 163.85c0.61 0 1.09 0.98 1.08 2.17c-0.01 1.19-1.39 7.48-3.07 13.96c-1.67 6.49-4.72 15.14-6.78 19.24c-2.05 4.1-6.26 10.8-9.35 14.9c-3.09 4.1-5.62 8.15-5.61 9c0 0.85-1.93 3.65-4.29 6.21c-2.36 2.56-4.32 5.35-4.34 6.21c-0.03 0.85-4.94 6.37-10.91 12.25c-5.97 5.89-15.05 13.83-20.17 17.66c-5.12 3.83-14.34 9.92-20.48 13.54c-6.14 3.62-15.64 8.31-21.1 10.42c-5.46 2.11-14.96 4.87-21.1 6.13c-6.14 1.26-18.15 2.84-26.69 3.51c-9.2 0.73-19.31 0.79-24.83 0.16c-5.12-0.59-11.68-1.67-14.59-2.42c-3.26-0.84-5.28-2.06-5.28-3.21c0-1.36 0.92-1.69 3.41-1.22c1.88 0.35 6.49 0.97 10.24 1.37c4.5 0.48 12.33-0.2 22.96-2.02c8.88-1.51 21.72-4.7 28.55-7.09c6.83-2.39 18-7.03 24.83-10.31c6.83-3.28 15.76-8.15 19.86-10.8c4.1-2.66 13.31-9.61 20.48-15.44c7.17-5.84 17.15-15.02 22.18-20.41c5.03-5.39 9.92-11.34 10.86-13.21c1.08-2.15 1.26-3.64 0.47-4.03c-0.68-0.34-6.41 4.75-12.72 11.3c-6.32 6.56-15.67 15.3-20.79 19.42c-5.12 4.12-14.06 10.7-19.86 14.61c-5.8 3.91-15.02 9.35-20.48 12.09c-5.46 2.74-11.19 5.32-12.72 5.74c-1.54 0.42-2.79 0.21-2.79-0.48c0-0.68 1.91-2.78 4.25-4.65c2.34-1.88 10.02-6.89 17.07-11.15c7.05-4.25 17.1-10.96 22.34-14.9c5.24-3.94 14.37-11.35 20.28-16.47c7.15-6.19 12.22-11.81 15.12-16.76c2.4-4.1 7.38-11.22 11.06-15.83c3.68-4.61 7.26-8.38 7.94-8.38c0.68 0 1.24 1.26 1.23 2.79c-0.01 1.54-1.41 5.87-3.12 9.62c-1.71 3.75-2.79 7.11-2.4 7.45c0.39 0.34 1.09 0.04 1.57-0.67c0.47-0.71 3.42-5.18 6.55-9.93c4.37-6.63 6.37-8.64 8.61-8.64c2.55 0 3.29-1.18 5.83-9.31c1.6-5.12 3.51-10.01 4.25-10.86c0.74-0.85 1.84-1.55 2.45-1.55zm-97.02 83.16c0.31 0 0.03 0.52-0.62 1.16c-0.65 0.63-7.04 5.37-14.21 10.54c-10.6 7.63-15.59 10.29-26.69 14.22c-7.51 2.66-17.84 5.52-22.96 6.34c-5.12 0.82-15.54 1.31-23.15 1.07c-11.75-0.36-14.24-0.8-16.53-2.91c-2.12-1.96-2.87-2.13-3.54-0.81c-0.68 1.34-1.73 1.39-5.2 0.28c-2.39-0.77-6.3-3.04-8.69-5.06c-3.61-3.04-3.93-3.66-1.86-3.67c1.37-0.01 5.83 0.87 9.93 1.95c6.14 1.62 11.15 1.8 28.55 1.05c19.6-0.84 20.97-0.76 19.24 1.15c-1.02 1.13-1.41 2.46-0.86 2.96c0.55 0.5 6.13-0.89 12.41-3.09c6.28-2.19 14.77-4.91 18.86-6.03c4.1-1.12 8.84-3.31 10.55-4.85c1.71-1.54 5.62-4.22 8.69-5.95c3.07-1.73 7.82-4.32 10.55-5.75c2.73-1.43 5.22-2.6 5.52-2.6z" />
	</g>
</svg>