<svg version="1.2" baseProfile="tiny-ps" xmlns="http://www.w3.org/2000/svg" viewBox="0 0 1080 1080" width="1080" height="1080">
	<title>sh</title>
	<style>
		tspan { white-space:pre }
		.s0 { fill: #000000 } 
		.s1 { fill: #ffffff } 
	</style>
	<g id="Sh">
		<path id="Path 0" class="s0" d="m0 0h1080v1080h-1080v-540v-540z" />
		<path id="Path 1" class="s1" d="m784 55.07c6.88-0.06 14.91 0.55 20 1.53c4.67 0.89 10.3 2.4 12.5 3.35c2.2 0.95 6.59 3.37 9.75 5.39c3.16 2.02 7.84 5.58 10.39 7.91c2.55 2.34 6.48 6.72 8.71 9.75c2.24 3.02 5.34 8.65 6.9 12.5c1.56 3.85 3.52 10.83 4.36 15.5c0.99 5.53 1.52 14.79 1.52 26.5c0 10.32-0.7 23.97-1.64 32c-0.9 7.7-2.98 21.43-4.62 30.5c-1.64 9.08-4.99 25.05-7.44 35.5c-2.45 10.45-6.53 26.42-9.05 35.5c-2.52 9.07-8.78 30.22-13.91 47c-5.13 16.77-12.11 39.05-15.52 49.5c-3.41 10.45-8.79 25.75-11.94 34c-3.16 8.25-11.52 28.05-18.57 44c-7.05 15.95-17.65 38.45-23.55 50c-5.9 11.55-17.52 34.05-25.83 50c-8.31 15.95-24.32 47.56-56.06 111.5l0.02 24.75c0.01 13.61 0.43 29.93 0.94 36.25c0.51 6.36 1.8 14.18 2.91 17.5c1.6 4.82 1.83 7.08 1.17 11.5c-0.45 3.02-0.65 5.84-0.43 6.25c0.22 0.41 0.85 0.53 1.4 0.25c0.55-0.28 1.93-2.64 3.06-5.25c1.13-2.61 4.01-11.5 6.4-19.75c2.38-8.25 4.43-16.35 4.54-18c0.11-1.65 0.16-3.56 0.1-4.25c-0.08-0.91-0.64-0.98-2.11-0.25c-1.1 0.55-2.22 1-2.5 1c-0.28 0-0.51-1.01-0.52-2.25c-0.01-1.24 0.89-3.26 2-4.5c1.11-1.24 2.58-2.07 3.27-1.85c0.69 0.22 2.08 0.78 3.1 1.25c1.72 0.79 1.8 0.47 1.13-4.65c-0.57-4.33-0.41-5.71 0.75-6.5c0.81-0.55 2.73-3.48 4.26-6.5c1.53-3.03 6.56-15.85 11.18-28.5c4.62-12.65 11.37-29.98 15-38.5c3.63-8.52 10.34-22.93 14.91-32c4.57-9.07 11.04-21.11 14.36-26.75c3.64-6.16 8.94-13.28 13.3-17.85c5.68-5.95 8.99-8.44 15.25-11.51c4.4-2.15 10.48-4.36 13.5-4.92c3.02-0.55 8.42-1 12-0.99c3.58 0.01 8.3 0.5 10.5 1.1c2.73 0.74 5.58 2.76 9 6.38c3.12 3.31 6.03 7.79 7.75 11.91c1.51 3.64 3.44 9.87 4.29 13.86c0.96 4.53 2.46 25.08 4 54.75c1.36 26.13 3.16 54.7 4.01 63.5c0.85 8.8 2.45 22.3 3.56 30c1.11 7.7 2.89 18.27 3.97 23.5c1.07 5.22 3.28 13.77 4.92 19c1.63 5.22 4.33 11.86 5.99 14.75c2.14 3.73 3.81 5.44 5.77 5.9c2 0.47 4.25-0.14 8.25-2.25c3.02-1.6 8.87-5.4 13-8.46c4.13-3.06 10.43-8.28 14-11.6c3.57-3.32 10.36-11.4 15.09-17.94c4.72-6.54 10.54-14.82 12.92-18.4c2.38-3.57 5.95-8.44 7.91-10.82c2.39-2.89 4.22-4.22 5.52-4c1.27 0.21 2.25 1.54 2.82 3.82c0.64 2.54 0.3 6.38-1.26 14c-1.18 5.77-4.59 17.92-7.58 27c-2.99 9.07-7.87 21.45-10.83 27.5c-3.96 8.08-7.07 12.82-11.74 17.86c-4.79 5.17-8.19 7.76-13.8 10.5c-7.39 3.61-7.55 3.64-20 3.6c-11.42-0.04-13.41-0.33-22.05-3.25c-5.23-1.76-13.45-5.34-18.29-7.96c-4.83-2.61-11.61-7.23-15.06-10.25c-3.45-3.02-7.94-7.52-9.98-10c-2.04-2.48-5.45-7.88-7.58-12c-2.13-4.12-5.09-10.87-6.57-15c-1.48-4.12-3.97-12.9-5.55-19.5c-1.57-6.6-3.55-16.72-4.39-22.5c-0.84-5.77-2.19-18.15-3.01-27.5c-0.81-9.35-1.99-28.7-2.61-43c-0.63-14.3-1.47-32.75-1.87-41c-0.62-12.87-0.9-14.61-1.92-12.25c-0.65 1.51-2.31 4.44-3.67 6.5c-1.36 2.06-4.18 4.65-6.25 5.76c-3.16 1.68-3.86 2.65-4.33 6c-0.31 2.2-1.28 5.34-2.15 6.99c-0.88 1.65-2.81 4.13-4.3 5.5c-1.49 1.38-4.09 4.53-5.79 7c-2.72 3.97-3.06 5.24-2.89 10.75c0.14 4.42-0.36 7.35-1.69 10c-1.03 2.06-3.73 5.44-6 7.5c-2.27 2.06-4.57 3.75-5.12 3.75c-0.55 0-1-0.11-1.01-0.25c0-0.14 1.41-4.3 3.13-9.25c1.72-4.95 5.72-14.62 8.87-21.5c3.16-6.87 10.27-21.95 15.81-33.5c5.54-11.55 10.35-22.35 11.34-27l-2.15 2.5c-1.18 1.38-4.76 7.68-7.96 14c-3.2 6.32-9.51 19.6-14.02 29.5c-4.51 9.9-11.36 25.43-15.21 34.5c-3.85 9.08-10.13 24.38-13.94 34c-3.81 9.62-8.51 22.45-10.44 28.5c-1.93 6.05-3.33 11.45-3.12 12c0.21 0.55 1.76-1.7 3.43-5c1.67-3.3 4.25-8.92 5.72-12.5c1.47-3.57 4.83-12.35 7.47-19.5c2.64-7.15 5.64-14.58 6.66-16.5c1.55-2.91 1.92-3.16 2.2-1.5c0.19 1.1-0.85 7.4-2.31 14c-1.46 6.6-9.09 37.87-16.97 69.5c-12.82 51.48-14.69 60.12-17.89 82.5c-1.96 13.75-4.65 29.28-5.96 34.5c-1.32 5.23-3.51 11.75-4.88 14.5c-1.78 3.57-3.53 5.5-6.13 6.75c-2 0.96-4.54 1.75-5.64 1.75c-1.1 0-5.49-1.17-9.75-2.6c-4.26-1.43-9.66-3.9-12-5.5c-2.34-1.6-5.49-4.56-7-6.57c-2.4-3.2-2.75-4.59-2.75-10.75c0-5.52-0.57-8.29-2.58-12.58c-1.42-3.02-3.44-6.33-4.5-7.35c-1.87-1.8-1.96-1.79-3.58 0.5c-1.49 2.11-1.82 2.2-3.3 0.85c-0.9-0.83-2.95-5.55-4.55-10.5c-1.6-4.95-3.8-12.6-4.9-17c-1.1-4.4-3.79-16.77-5.98-27.5c-2.19-10.72-4.9-26.25-6.03-34.5c-1.12-8.25-2.5-20.4-3.06-27c-0.56-6.6-1.47-21.67-2.02-33.5c-0.55-11.83-0.99-34.55-0.99-50.5c0.01-15.95 0.45-41.83 0.99-57.5c0.54-15.67 1.45-35.92 2.02-45c0.57-9.08 1.71-24.38 2.53-34c0.82-9.62 2.38-25.38 3.48-35c1.09-9.62 3.12-25.6 4.51-35.5c1.39-9.9 3.88-26.1 5.53-36c1.66-9.9 4.83-27.23 7.05-38.5c2.22-11.27 6.25-30.17 8.97-42c2.71-11.83 7.44-30.95 10.52-42.5c3.07-11.55 7.59-27.75 10.03-36c2.44-8.25 7.39-24.22 11-35.5c3.61-11.27 10.3-30.85 14.88-43.5c4.58-12.65 9.74-26.15 11.48-30c1.74-3.85 5.54-11.05 8.46-16c2.92-4.95 8.43-13.05 12.25-18c3.82-4.95 9.61-11.38 12.87-14.29c3.26-2.91 7.72-6.16 9.92-7.23c3.05-1.48 5.18-1.8 9-1.34c4.41 0.53 5.36 0.29 8-1.99c1.65-1.42 4.35-3.02 6-3.54c1.65-0.52 8.17-0.99 14.5-1.05z" />
		<path id="Path 2" fill-rule="evenodd" class="s0" d="m794.5 75.51c1.65 0.34 4.77 2.05 6.93 3.8c2.4 1.95 5.02 5.53 6.73 9.19c1.54 3.3 3.73 9.6 4.88 14c1.62 6.23 2.13 11.47 2.27 23.7c0.13 10.77 0.57 16.11 1.41 17c0.99 1.05 1.43 0.72 2.31-1.7c0.6-1.65 1.39-7.17 1.78-12.26c0.38-5.09 0.92-9.27 1.19-9.29c0.28-0.02 1.18 1.45 2 3.26c1.08 2.36 1.47 6.54 1.41 14.79c-0.05 6.34-1.04 17.56-2.21 25c-1.17 7.43-3.48 24.3-5.14 37.5c-1.66 13.2-3.93 28.39-5.04 33.75c-1.11 5.36-2.63 11.21-3.37 13c-0.74 1.79-2.09 3.81-3 4.5c-1.35 1.02-1.54 2.32-1.03 7c0.49 4.47 0.02 8.2-2.1 16.75c-1.5 6.05-5.33 18.88-8.52 28.5c-3.18 9.62-7.65 21.78-9.92 27c-2.27 5.22-5.91 12.2-8.09 15.5c-2.18 3.3-3.97 6.56-3.98 7.25c-0.01 0.69 0.77 1.14 1.73 1c1.27-0.18 1.84 0.56 2.09 2.75c0.19 1.65-0.92 7.05-2.45 12c-1.71 5.51-8.58 20.45-17.71 38.5c-8.2 16.22-19.32 38.95-24.7 50.5c-5.38 11.55-14.8 31.35-20.93 44c-6.13 12.65-16.96 34.25-24.06 48c-7.1 13.75-13.62 25.9-14.48 27c-1.45 1.84-1.52 1.12-0.97-9c0.33-6.05 1.48-23.38 2.55-38.5c1.07-15.13 2.63-34.7 3.46-43.5c0.83-8.8 2.64-26.13 4.03-38.5c1.38-12.38 4.09-33.52 6.01-47c1.92-13.48 4.85-32.37 6.5-42c1.65-9.62 4.37-24.48 6.04-33c1.67-8.52 5.3-25.4 8.07-37.5c2.77-12.1 7.49-31 10.49-42c3-11 9.2-31.25 13.77-45c4.58-13.75 11.57-33.1 15.54-43c3.97-9.9 11.25-26.32 16.17-36.5c4.92-10.18 12.07-24.24 15.9-31.25c3.83-7.01 7.97-13.45 9.2-14.3c1.46-1.01 3.3-1.34 5.25-0.94zm16.6 0.93c0.49 0.31 2.64 4.05 4.76 8.31c2.12 4.26 4.63 10 5.56 12.75c0.94 2.75 1.54 5.9 1.33 7c-0.3 1.61-1 1.01-3.58-3c-1.77-2.75-4.55-8.49-6.19-12.75c-1.64-4.26-2.93-8.9-2.88-10.31c0.06-1.41 0.51-2.31 1-2z" />
		<path id="Path 3" class="s1" d="m516.5 79.04c1.92 0.01 4.81 1.38 8 3.8c2.75 2.08 5.45 4.06 6 4.4c0.55 0.34 3.81 1.09 7.25 1.69c3.44 0.59 7.26 1.88 8.5 2.87c1.36 1.09 4.91 2.07 9 2.5c5.71 0.6 7.02 1.1 8.5 3.27c1.26 1.85 3.15 2.83 6.75 3.51c2.79 0.53 7.21 2.46 10 4.37c2.75 1.88 8.83 7.16 13.52 11.74c4.68 4.57 10.6 11.24 13.14 14.82c2.54 3.58 6.9 10.78 9.68 16c2.78 5.23 6.39 12.88 8.04 17c1.64 4.13 4.17 11.55 5.61 16.5c1.44 4.95 3.26 13.5 4.05 19c0.79 5.5 1.44 14.5 1.44 20c0 5.5-0.87 15.63-1.95 22.5c-1.08 6.88-2.59 14.75-3.37 17.5c-0.78 2.75-2.33 7.25-3.44 10c-1.12 2.75-2.8 7.7-3.73 11c-0.94 3.3-5.07 14.55-9.19 25c-4.12 10.45-11.01 26.2-15.32 35c-4.31 8.8-8.36 17.35-8.99 19c-0.64 1.65-8.15 15.83-16.69 31.5c-8.55 15.67-16.45 29.85-17.57 31.5c-1.12 1.65-3.65 4.74-5.62 6.87c-1.98 2.13-5.84 4.94-8.59 6.24c-2.75 1.3-6.46 2.38-8.25 2.38c-1.79 0.01-4.71-0.72-6.5-1.62c-1.79-0.89-5.96-4.16-9.28-7.25c-3.32-3.09-9.05-8.21-12.75-11.37c-6.27-5.37-6.88-6.26-9.2-13.5c-1.36-4.26-4.08-13.83-6.05-21.25c-1.96-7.43-5.08-17.1-6.93-21.5c-1.85-4.4-3.6-9.13-3.89-10.5c-0.3-1.38-2.14-4.52-4.09-7c-1.95-2.48-3.56-5.29-3.56-6.25c-0.01-0.96 0.55-1.76 1.24-1.77c0.69-0.01 5.14 3.92 9.91 8.75c5.09 5.16 8.9 9.91 9.25 11.52c0.38 1.74 1.24 2.74 2.34 2.73c0.96-0.01 4.01-2.37 6.77-5.25c2.76-2.88 7.11-8.16 9.65-11.73c2.55-3.58 6.81-10.52 9.48-15.43c2.67-4.91 5.41-9.07 6.1-9.25c0.8-0.21 1.07 0.39 0.75 1.68c-0.28 1.1-0.05 2 0.5 2c0.55 0 2.97-3.04 5.37-6.75c2.41-3.71 7.55-12.38 11.44-19.25c3.89-6.87 9.39-17.67 12.24-24c2.85-6.32 7.21-16 9.69-21.5c2.48-5.5 6.51-15.18 8.95-21.5c2.44-6.33 5.94-16.67 7.77-23c1.83-6.32 4.05-14.99 4.93-19.25c0.88-4.26 1.61-10.34 1.62-13.5c0.02-4.35-0.53-6.6-2.27-9.25c-1.66-2.52-3.69-3.97-7.28-5.18c-2.74-0.92-11.05-2.22-18.48-2.89c-8.24-0.74-20.52-0.99-31.5-0.63c-9.9 0.32-22.95 1.26-29 2.09c-6.05 0.83-17.08 2.68-24.5 4.11c-7.42 1.43-19.12 3.99-26 5.67c-7.84 1.92-17.35 5.22-25.5 8.84c-7.15 3.18-17.72 7.26-23.5 9.08c-7.32 2.31-12.01 4.46-15.5 7.14c-2.75 2.11-6.13 4.11-7.5 4.44c-1.38 0.33-10.15 4.87-19.5 10.08c-9.35 5.21-19.04 11.02-21.54 12.92c-2.5 1.89-5.91 5.11-7.59 7.14c-1.92 2.33-7.07 5.87-13.96 9.59c-6 3.24-14.26 8.42-18.35 11.5c-4.09 3.08-10.84 9.41-15 14.06c-4.16 4.65-9.29 10.05-11.4 12c-2.11 1.95-13.58 13.24-25.5 25.08c-11.92 11.85-24.88 25.35-28.81 30c-3.93 4.65-10.9 13.48-15.5 19.61c-4.6 6.13-11.11 15.8-14.48 21.5c-3.37 5.7-8.95 15.53-12.41 21.86c-3.46 6.32-7.57 13.97-9.13 17c-1.56 3.03-3.98 9.33-5.37 14c-1.39 4.67-3.2 12.32-4.01 17c-0.81 4.67-1.47 13.67-1.46 20c0.01 6.32 0.66 15.77 1.45 21c0.79 5.23 2.57 13.1 3.96 17.5c1.39 4.4 4.01 10.48 5.81 13.51c1.81 3.03 5.76 8.36 8.79 11.84c3.03 3.48 9.55 9.82 14.5 14.09c4.95 4.26 14.4 11.78 21 16.71c6.6 4.92 15.6 11.46 20 14.53c4.4 3.07 14.52 9.62 22.5 14.57c7.98 4.94 29.8 17.65 48.5 28.24c18.7 10.59 39.85 22.76 47 27.05c7.15 4.29 14.91 9.19 17.25 10.88c2.34 1.69 5.15 4.54 6.25 6.33c1.1 1.79 2.16 3.7 2.35 4.25c0.2 0.55 1.33 0.1 2.52-1c1.99-1.84 2.38-1.88 4.77-0.5c1.43 0.83 7.39 5.28 13.23 9.89c5.84 4.62 16.56 14.29 23.81 21.5c8.98 8.92 13.82 14.54 15.16 17.61c1.09 2.47 8.43 12.83 16.31 23.01c7.89 10.18 17.76 23.68 21.94 30c4.18 6.32 9.22 14.42 11.18 17.99c1.97 3.58 4.7 9.88 6.08 14c1.37 4.12 3.2 12.56 4.07 18.75c0.86 6.19 1.56 16.09 1.56 22c0 7.37-0.65 13.42-2.05 19.25c-1.12 4.68-3.4 12.32-5.06 17c-1.66 4.68-4.89 12.32-7.19 17c-2.29 4.67-6.59 12.32-9.54 17c-2.95 4.67-8.32 12.32-11.93 17c-3.61 4.68-11.8 14.8-18.2 22.5c-6.4 7.7-12.96 15.03-14.58 16.28c-1.62 1.26-5.06 3.96-7.64 6c-2.58 2.04-7.76 6.24-11.5 9.33c-3.74 3.09-12.66 9.64-19.81 14.55c-7.15 4.92-15.7 10.57-19 12.56c-3.3 1.99-11.85 6.54-19 10.11c-10.01 5-14.96 6.85-21.5 8.05c-4.68 0.86-15.03 2.27-23 3.14c-7.97 0.87-21.7 1.84-30.5 2.16c-15.86 0.58-16.1 0.55-27.5-2.68c-6.32-1.79-16-4.99-21.5-7.1c-5.5-2.11-12.7-5.56-16-7.67c-3.3-2.11-6.34-4.6-6.75-5.54c-0.41-0.94-4.46-4.14-9-7.12c-4.77-3.13-10.08-7.66-12.6-10.75c-2.39-2.94-6.18-8.5-8.43-12.35c-2.24-3.85-4.82-9.47-5.73-12.5c-0.91-3.02-2.4-6.62-3.32-8c-0.92-1.38-2.57-6.78-3.66-12c-1.1-5.22-2-10.96-2.01-12.75c-0.01-1.79 1.11-5.5 2.49-8.25c1.38-2.75 2.71-4.89 2.96-4.75c0.25 0.14 1.65 4.3 3.1 9.25c1.45 4.95 3.56 10.8 4.69 13c1.13 2.2 2.99 5.28 4.15 6.85c1.15 1.57 3.9 3.92 6.1 5.23c2.2 1.31 7.15 3.28 11 4.38c3.85 1.1 11.27 2.52 16.5 3.15c5.23 0.63 15.13 1.17 22 1.19c7.04 0.03 14.9-0.52 18-1.26c3.03-0.72 7.64-2.38 10.25-3.68c2.61-1.3 6.89-2.84 9.5-3.43c2.61-0.58 10.82-3.34 18.25-6.12c7.42-2.78 19.57-7.73 27-10.99c7.43-3.26 18.23-8.89 24-12.51c5.78-3.62 13.65-8.86 17.5-11.65c3.85-2.79 11.73-8.98 17.5-13.75c5.78-4.77 17.03-15.38 25-23.57c7.97-8.19 17.43-19.04 21-24.11c3.58-5.07 7.96-11.81 9.75-14.98c1.79-3.17 5.11-10.49 7.37-16.26c2.27-5.78 5.2-14.78 6.52-20c1.63-6.46 2.39-12.3 2.38-18.25c-0.01-4.81-0.55-11.11-1.2-14c-0.65-2.89-2.16-6.37-3.35-7.75c-1.19-1.38-5.04-4.38-8.56-6.69c-4.15-2.72-7.01-5.44-8.15-7.75c-0.96-1.96-2.87-4.01-4.25-4.56c-1.38-0.55-3.63-1-5-1c-1.5 0-2.9-0.8-3.5-2c-0.55-1.1-2.91-2.95-5.25-4.12c-2.34-1.16-5.05-2.85-6.03-3.75c-0.98-0.9-1.76-2.53-1.73-3.63c0.03-1.1-1.19-3.19-2.72-4.64c-1.52-1.45-4.68-3.59-7.02-4.75c-2.34-1.16-5.04-2.12-6-2.14c-0.96-0.01-2.87-1.39-4.25-3.05c-2.14-2.59-3.67-3.23-10.75-4.47c-4.54-0.8-10.35-2.46-12.92-3.7c-2.57-1.24-5.38-3.32-6.25-4.63c-0.87-1.31-3.38-3.44-5.58-4.73c-2.2-1.29-7.15-3.02-11-3.85c-3.85-0.83-7.34-1.51-7.75-1.52c-0.41-0.01-1.42-1.37-2.25-3.02c-1.33-2.67-2-3-6-3c-2.48 0-5.74-0.48-7.25-1.08c-1.51-0.59-3.08-1.6-3.48-2.25c-0.4-0.65-0.74-1.74-0.75-2.42c-0.01-0.69 1-1.46 2.23-1.72c1.99-0.42 2.08-0.64 0.75-1.92c-0.83-0.8-5.33-3.35-10-5.68c-5.87-2.92-10.51-4.47-15-5.02c-3.58-0.44-7.4-1.12-8.5-1.52c-1.1-0.4-3.24-1.55-4.75-2.56c-1.51-1.01-4.18-4.42-5.93-7.59c-2.9-5.24-3.25-5.55-4-3.5c-0.45 1.24-1.27 2.48-1.82 2.75c-0.55 0.28-2.78-0.96-4.96-2.75c-2.18-1.79-5.78-4.49-8-6c-2.91-1.98-4.04-3.45-4.04-5.25c0-1.38-0.56-3.67-1.25-5.09c-0.69-1.43-7.33-7.6-14.75-13.73c-7.42-6.13-21.37-19.02-31-28.66c-9.62-9.64-22.28-23.37-28.12-30.52c-5.84-7.15-13.05-16.38-16.02-20.5c-2.97-4.12-7.12-11.55-9.22-16.5c-2.1-4.95-6.49-16.2-9.75-25c-3.27-8.8-6.82-19.15-7.89-23c-1.07-3.85-2.43-9.47-3-12.5c-0.58-3.03-1.5-8.65-2.05-12.5c-0.55-3.85-1.44-14.65-1.97-24c-0.58-10.17-0.62-21.42-0.1-28c0.7-8.8 1.72-13.5 5.11-23.5c2.33-6.88 7.13-19.25 10.67-27.5c3.54-8.25 9.16-19.95 12.5-26c3.34-6.05 9.37-15.95 13.4-22c4.03-6.05 11.3-15.94 16.14-21.97c4.85-6.03 13.55-15.93 19.33-22c5.78-6.07 12.2-13.17 14.25-15.78c2.05-2.61 4.44-4.75 5.3-4.75c0.86 0 6.6-5.03 12.75-11.18c6.15-6.15 17.26-16.3 24.68-22.56c7.43-6.26 15.75-12.86 18.5-14.66c2.75-1.8 7.47-4.86 10.5-6.79c3.02-1.93 10.34-7.4 16.25-12.16c5.91-4.75 11.31-8.64 12-8.64c0.69 0 9.35-4.54 19.25-10.09c9.9-5.55 23.4-12.81 30-16.14c6.6-3.33 19.2-8.97 28-12.53c8.8-3.56 20.5-8.01 26-9.88c5.5-1.87 15.63-4.95 22.5-6.84c6.88-1.89 19.25-4.8 27.5-6.46c8.25-1.66 20.62-3.51 27.5-4.11c6.87-0.6 14.97-1.34 18-1.65c4.1-0.42 6.01-1.16 7.5-2.91c1.28-1.51 3.08-2.35 5-2.34z" />
		<path id="Path 4" fill-rule="evenodd" class="s0" d="m451.91 108.7c0.33 0.18 0.14 0.73-0.41 1.22c-0.55 0.49-4.83 2.04-9.5 3.44c-4.67 1.4-13.9 3.9-20.5 5.55c-6.6 1.66-15.15 4.1-19 5.43c-3.85 1.33-10.6 4.09-15 6.12c-4.4 2.04-12.5 5.46-18 7.6c-5.5 2.14-17.2 7.43-26 11.75c-8.8 4.32-21.15 10.97-27.45 14.77c-6.3 3.8-13.5 8.76-16 11.02c-2.5 2.26-6.12 4.91-8.05 5.89c-1.93 0.98-5.79 3.86-8.59 6.4c-2.8 2.53-11.57 8.91-19.5 14.17c-7.93 5.26-15.73 9.99-17.35 10.5c-1.92 0.61-6.57 5.18-13.5 13.26c-6.48 7.56-12.91 13.95-16.62 16.5c-3.33 2.29-8.69 6.42-11.92 9.17c-3.22 2.75-7.15 6.8-8.72 9c-1.57 2.2-2.85 5.01-2.83 6.25c0.02 1.24-0.53 2.23-1.22 2.21c-0.69-0.02-3.29 2.12-5.79 4.75c-2.49 2.63-7.96 9.06-12.15 14.29c-4.19 5.22-11.07 14.45-15.3 20.5c-4.23 6.05-10.11 15.28-13.06 20.5c-2.96 5.22-8.36 16.25-12.01 24.5c-3.65 8.25-7.09 15.45-7.65 16c-0.68 0.67-0.78-0.15-0.31-2.5c0.38-1.93 2.29-7.55 4.23-12.5c1.94-4.95 6.77-15.52 10.73-23.5c3.96-7.98 9.91-18.55 13.23-23.5c3.32-4.95 9.53-13.5 13.81-19c4.28-5.5 10.98-13.79 14.89-18.42c3.91-4.63 12.52-14.08 19.14-21c6.61-6.92 13.88-14.83 16.15-17.58c2.27-2.75 8.05-8.37 12.86-12.5c4.81-4.13 13.4-11.89 19.1-17.25c10.07-9.48 10.47-9.73 14.11-9.14c2.76 0.45 5.17-0.01 9.13-1.75c2.96-1.3 5.77-3.15 6.25-4.11c0.53-1.06 0.48-1.95-0.13-2.25c-0.55-0.28-0.96-0.97-0.91-1.54c0.05-0.57 2.07-1.92 4.5-3c2.55-1.14 4.62-2.81 4.91-3.96c0.28-1.1 1.18-2 2-2c1 0 1.33 0.67 1 2c-0.33 1.33 0 2 1 2c0.83 0 2.2-1.69 3.06-3.75c0.86-2.06 2.54-4.78 3.75-6.03c1.21-1.25 5.12-3.26 8.69-4.46c3.58-1.2 7.74-3.21 9.25-4.47c1.51-1.26 3.65-2.29 4.75-2.29c1.1 0 3.8-1.58 6-3.5c2.2-1.93 4.9-3.5 6-3.5c1.1 0 4.81-1.53 8.25-3.41c3.44-1.88 12.55-5.89 20.25-8.91c7.7-3.03 16.92-6.83 20.5-8.45c3.58-1.62 11.45-4.55 17.5-6.52c6.05-1.96 18.42-5.59 27.5-8.05c9.07-2.46 18.26-4.88 20.41-5.38c2.15-0.5 4.17-0.76 4.5-0.58zm75.01 14.7c9.82 0.07 13.51 0.43 13.75 1.35c0.19 0.73-1.24 1.67-3.42 2.24c-2.06 0.55-5.66 1-8 1c-2.34 0-5.15 0.46-6.25 1.01c-1.33 0.67-1.83 1.67-1.5 3c0.32 1.27-0.14 2.33-1.25 2.9c-0.96 0.5-8.95 1.38-17.75 1.98c-8.8 0.59-16.22 0.9-16.5 0.68c-0.28-0.22 1.52-1.03 4-1.81c2.47-0.78 4.47-1.82 4.43-2.33c-0.04-0.5-1.16-1.31-2.5-1.78c-1.65-0.59-5.47-0.18-11.93 1.29c-9 2.04-9.54 2.31-10.25 5.12c-0.55 2.18-1.87 3.48-5 4.94c-2.34 1.09-6.16 1.99-8.5 2c-2.34 0.01-4.25-0.43-4.25-0.98c0-0.55 1.58-1.68 3.5-2.5c1.93-0.82 3.5-1.95 3.5-2.5c0-0.55-0.79-1.29-1.75-1.64c-0.98-0.36-3.61 0.3-6 1.5c-2.34 1.18-5.15 2.14-6.25 2.14c-1.23 0-2.01 0.67-2.02 1.75c-0.01 0.96 0.55 2.33 1.25 3.04c1.02 1.04 0.98 1.47-0.23 2.2c-0.83 0.5-4.31 1.61-7.75 2.46c-3.44 0.85-8.61 1.59-11.5 1.65c-3.94 0.07-6.21 0.76-9.1 2.75c-3.54 2.44-3.92 2.51-4.75 0.9c-0.5-0.96-1.91-1.75-3.15-1.75c-1.24 0-3.71 0.9-5.5 2c-1.92 1.18-3.25 2.82-3.25 4c0 1.1-0.34 2-0.75 2.01c-0.41 0-1.76-0.67-3-1.5c-1.37-0.92-3.33-1.28-5-0.93c-1.51 0.32-3.55 1.33-4.53 2.25c-0.98 0.92-1.77 2.68-1.75 3.92c0.03 1.9-1.8 3.12-11.72 7.82c-6.46 3.06-13.77 6.86-16.25 8.43c-2.48 1.57-5.85 3.17-7.5 3.56c-1.8 0.42-4.49 0.14-6.73-0.68c-2.05-0.76-4.07-1-4.5-0.54c-0.43 0.46 0.58 1.88 2.23 3.14c1.76 1.35 2.69 2.76 2.25 3.41c-0.41 0.61-1.54 1.13-2.5 1.15c-0.96 0.02-2.42-0.67-3.25-1.54c-0.83-0.87-1.73-1.58-2-1.56c-0.28 0.01-1.26 1.72-2.19 3.79c-0.97 2.17-3.62 5.14-6.25 7.02c-2.51 1.79-5.57 3.36-6.81 3.5c-1.51 0.17-2.19-0.25-2.06-1.25c0.1-0.83 0.44-2.51 0.75-3.75c0.36-1.44 0.11-2.24-0.69-2.22c-0.69 0.02-2.15 0.72-3.25 1.55c-1.35 1.03-2.07 2.89-2.23 5.72c-0.17 3.21-1 4.98-3.5 7.54c-1.8 1.84-5.97 5.26-9.27 7.61c-3.3 2.34-8.22 5.56-15.88 10.05l0.69-2.75c0.52-2.08 0.33-2.75-0.81-2.75c-0.83 0-1.95 0.9-2.5 2c-0.55 1.1-1 3.58-1 5.5c0 1.93-0.56 3.79-1.25 4.15c-0.69 0.36-1.81-0.2-2.5-1.25c-1.21-1.83-1.38-1.84-4.75-0.15c-2.83 1.42-3.5 2.32-3.5 4.75c0 1.65-0.71 3.67-1.57 4.5c-0.86 0.83-2.78 1.49-4.25 1.48c-1.47-0.01-4.14 0.44-5.93 1c-1.79 0.56-3.7 1.92-4.25 3.02c-0.55 1.1-0.73 3.24-0.39 4.75c0.37 1.67-0.02 4.03-1 6c-0.89 1.79-3.75 4.61-6.36 6.26c-2.61 1.66-5.09 3.01-5.5 3c-0.41-0.01-0.75-0.69-0.75-1.51c0-0.83-0.34-1.51-0.75-1.51c-0.41-0.01-2.78 1.27-5.25 2.83c-2.48 1.56-5.06 3.6-5.75 4.51c-0.69 0.92-1.02 2.35-0.75 3.17c0.43 1.3 0.91 1.27 3.62-0.25c1.72-0.96 3.74-2.76 4.5-4c0.76-1.24 1.83-2.25 2.38-2.25c0.55 0 1 0.9 1 2c0 1.2-2.08 3.71-5.19 6.25c-2.85 2.34-7.86 7.63-11.12 11.75c-3.26 4.13-6.15 7.73-6.41 8c-0.26 0.28-0.21-2.09 0.12-5.25c0.49-4.71 0.33-5.75-0.9-5.75c-0.83 0-1.95 0.9-2.5 2c-0.55 1.1-1 3.46-1 5.25c0 2.08-1.39 5.41-3.88 9.25c-2.13 3.3-5.17 7.14-6.75 8.54c-1.58 1.4-3.32 2.75-3.87 3c-0.55 0.25-3.11 3.61-5.69 7.46c-2.58 3.85-6.28 8.58-8.23 10.5c-1.95 1.93-3.89 3.16-4.31 2.75c-0.42-0.41 0.36-1.87 1.73-3.24c2.34-2.32 2.38-2.53 0.64-3.25c-1.37-0.56-2.35-0.1-3.71 1.74c-1.02 1.38-2.12 4.52-2.45 7c-0.33 2.48-1.24 6.3-2.01 8.5c-0.78 2.2-2.8 6.25-4.49 9c-1.69 2.75-3.27 4.66-3.52 4.25c-0.25-0.41 0.9-3.9 2.55-7.75c1.65-3.85 2.88-7.79 2.73-8.75c-0.18-1.17-1.89 0.57-5.19 5.25c-2.71 3.85-5.06 7.23-5.23 7.5c-0.17 0.28-0.54 0.16-0.81-0.25c-0.28-0.41 1.13-3.79 3.11-7.5c1.99-3.71 6.88-11.7 10.88-17.75c4-6.05 13.46-18.88 21.03-28.5c7.57-9.62 17.24-21.55 21.48-26.5c4.24-4.95 9.58-10.69 11.85-12.75c2.28-2.06 4.47-3.74 4.89-3.72c0.41 0.02 5.7-4.95 11.75-11.04c6.05-6.09 12.7-11.84 14.77-12.78c2.07-0.94 3.75-2.16 3.74-2.71c-0.02-0.55 1.89-2.85 4.23-5.11c2.35-2.26 8.31-7.26 13.26-11.11c4.95-3.85 13.95-10.38 20-14.51c6.05-4.13 12.46-8.24 14.25-9.14c1.79-0.9 4.25-1.63 5.48-1.63c1.38 0 4.8-2.47 9-6.5c3.72-3.58 7.45-6.5 8.27-6.5c0.83 0 7.91-3.35 15.75-7.45c7.84-4.1 18.53-9.1 23.75-11.12c5.23-2.02 13.1-4.75 17.5-6.07c4.4-1.32 12.05-3.08 17-3.92c4.95-0.84 10.58-2.01 12.5-2.6c1.93-0.59 5.75-2.57 8.5-4.4c2.75-1.83 7.92-4.29 11.5-5.47c3.58-1.18 14.15-3.65 23.5-5.49c9.35-1.84 22.4-4.05 29-4.91c6.6-0.86 13.8-1.72 16-1.91c2.2-0.2 10.04-0.31 17.42-0.26zm312.24 19.6c0.69 0 0.84 3.94 0.46 11.75c-0.32 6.46-1.27 16.7-2.12 22.75c-0.85 6.05-1.75 11.79-2.02 12.75c-0.26 0.96-0.93 1.52-1.48 1.25c-0.63-0.31-0.79-4.33-0.42-10.75c0.32-5.64 1-14.08 1.52-18.75c0.52-4.68 1.41-10.86 1.98-13.75c0.57-2.89 1.51-5.25 2.07-5.25zm-571.08 68c0.51 0 0.93 0.45 0.93 1c0 0.55-2.76 3.14-6.13 5.75c-3.37 2.61-9.56 7.72-13.75 11.35c-4.19 3.63-16.43 15.33-27.2 26c-10.77 10.67-27.31 28.51-36.75 39.65c-9.44 11.14-17.62 20.25-18.17 20.25c-0.55 0-0.7-0.56-0.33-1.25c0.37-0.69 2.04-3.27 3.72-5.75c1.68-2.48 8.28-10.58 14.67-18c6.39-7.43 21.03-22.78 32.53-34.12c11.5-11.34 24.06-23.45 27.91-26.91c3.85-3.46 10.3-8.92 14.32-12.13c4.03-3.21 7.74-5.84 8.25-5.84zm560.79 13c0.43 0 0.59 1.46 0.35 3.25c-0.24 1.79-2.39 10.9-4.78 20.25c-2.38 9.35-6.54 23.98-9.24 32.5c-2.7 8.52-7.49 22.93-10.65 32c-3.16 9.07-9.7 27.07-14.55 40c-4.84 12.93-11.49 30.25-14.77 38.5c-3.28 8.25-10.69 25.8-16.47 39c-5.77 13.2-15.56 35.02-21.75 48.5c-6.19 13.48-14.31 30.57-18.04 38c-3.74 7.43-7.49 14.4-9.9 17.5l-0.03-2c-0.02-1.1 3.16-8.53 7.07-16.5c3.91-7.97 12.06-24.85 18.11-37.5c6.05-12.65 14.38-30.65 18.51-40c4.13-9.35 10.41-23.97 13.96-32.5c3.55-8.53 9.98-24.73 14.3-36c4.32-11.27 10.85-29.05 14.51-39.5c3.67-10.45 9.59-28.45 13.16-40c3.57-11.55 8.06-26.63 9.98-33.5c1.92-6.87 4.83-16.89 6.46-22.25c1.63-5.36 3.33-9.75 3.76-9.75zm-673.1 106c0.23 0.83-2.88 6.85-6.92 13.38c-4.04 6.54-7.68 12.05-8.09 12.25c-0.41 0.2-0.34-0.65 0.16-1.88c0.5-1.24 2.66-5.4 4.81-9.25c2.14-3.85 5.19-9.03 6.76-11.5c1.88-2.95 3.01-3.98 3.28-3zm-4.31 34.96c0.72 0.66 0.59 1.45-0.45 2.54c-0.83 0.87-1.84 1.57-2.25 1.54c-0.41-0.02-0.84-0.63-0.95-1.34c-0.11-0.71 0.43-1.84 1.2-2.5c0.9-0.77 1.77-0.86 2.45-0.24zm627.31 173.67c0.15 0.48-5.5 12.34-12.55 26.37c-7.05 14.03-16.27 33.6-20.48 43.5c-4.21 9.9-10.77 26.1-14.58 36c-3.81 9.9-10.26 27.9-14.35 40c-4.08 12.1-12.69 38.09-19.11 57.75c-6.43 19.66-12.14 35.97-12.69 36.25c-0.55 0.28-1.24 0.39-1.53 0.25c-0.29-0.14 0.66-5.65 2.11-12.25c1.45-6.6 4.8-19.88 7.45-29.5c2.65-9.62 7.8-27.18 11.46-39c3.65-11.83 8.92-28.25 11.69-36.5c2.78-8.25 8.1-22.42 11.84-31.5c3.73-9.07 9.33-22.13 12.45-29c3.11-6.88 8.17-17.23 11.25-23c3.07-5.78 7.81-14.1 10.54-18.5c2.72-4.4 7.49-11.09 10.6-14.87c3.11-3.78 5.77-6.48 5.92-6zm-75.93 6.87c0.18 1.1-0.69 4.48-1.93 7.5c-1.25 3.03-3.53 7.41-5.08 9.75c-1.55 2.34-3.15 4.26-3.57 4.27c-0.41 0.01-0.41-1.68 0.01-3.75c0.42-2.07 2.89-7.37 5.5-11.77c3.44-5.8 4.83-7.45 5.07-6zm-437.33 56.43l2 0.02c1.1 0.01 3.01 0.7 4.25 1.53c1.24 0.83 2.02 1.96 1.75 2.51c-0.28 0.55-1.29 0.77-2.25 0.5c-0.96-0.28-2.65-1.41-3.75-2.53l-2-2.03zm543.36 21.07c0.63 0 1.14 0.79 1.14 1.75c0 0.96 0.69 10.98 1.53 22.25c0.84 11.27 2.19 26.57 3 34c0.81 7.43 2.62 19.8 4.03 27.5c1.41 7.7 2.39 14.67 2.18 15.5c-0.24 0.93-0.97 0.16-1.93-2c-0.85-1.93-2.56-7.1-3.81-11.5c-1.24-4.4-3.12-12.95-4.17-19c-1.43-8.23-2.06-18.23-2.52-39.75c-0.45-21.25-0.31-28.75 0.53-28.75zm-487.36 19c0.83 0 2.64 0.56 4.03 1.25c1.39 0.69 2.52 1.59 2.5 2c-0.02 0.41-0.48 0.75-1.03 0.75c-0.55 0-2.35-0.68-4-1.5c-1.65-0.82-3-1.72-3-2c0-0.28 0.68-0.5 1.5-0.5zm41.56 19.96c0.79-0.02 3.46 1.73 5.94 3.9c2.48 2.17 4.28 4.22 4 4.56c-0.28 0.34-1.63 0.11-3-0.51c-1.37-0.63-3.82-2.66-5.44-4.53c-1.99-2.29-2.47-3.4-1.5-3.43zm14.69 9.02c0.41-0.01 2.95 1.45 5.64 3.25c2.69 1.8 5.05 3.61 5.25 4.02c0.2 0.41 0.14 0.98-0.14 1.25c-0.28 0.28-1.96-0.23-3.75-1.12c-1.79-0.89-4.27-2.58-5.53-3.75c-1.25-1.17-2.26-2.47-2.25-2.88c0.01-0.41 0.36-0.76 0.78-0.77zm20.6 4.61c0.63 0.39 1.95 1.43 2.93 2.31c0.98 0.88 1.77 2.16 1.75 2.85c-0.02 0.84-1.02 0.59-3.03-0.75c-1.65-1.1-2.95-2.7-2.9-3.56c0.06-0.91 0.58-1.26 1.25-0.85zm57.14 162.41c1.01 0 1.51 0.99 1.51 3c0 1.65-1.53 8.96-3.4 16.25c-1.87 7.29-4.48 15.95-5.81 19.25c-1.33 3.3-5.16 10.28-8.52 15.5c-3.36 5.23-7.09 10.4-8.29 11.5c-1.2 1.1-2.81 3.24-3.58 4.75c-0.77 1.51-1.41 3.76-1.42 5c-0.01 1.39-1.88 3.97-4.87 6.75c-2.67 2.48-5.7 6.26-6.73 8.41c-1.06 2.21-7.54 9.39-14.89 16.5c-7.16 6.92-17.28 15.81-22.5 19.74c-5.22 3.93-13.54 9.71-18.49 12.84c-4.95 3.13-13.5 7.96-19 10.73c-5.5 2.77-13.37 6.34-17.5 7.94c-4.12 1.59-10.87 3.76-15 4.82c-4.12 1.06-13.8 2.87-21.5 4.02c-7.7 1.15-21.88 2.37-31.5 2.7c-14.14 0.49-19.52 0.26-28-1.15c-5.77-0.96-12.19-2.38-14.25-3.15c-2.06-0.77-3.75-2.07-3.75-2.89c0-0.83 0.79-1.78 1.75-2.12c0.96-0.34 4.68 0.19 8.25 1.18c5.2 1.44 8.5 1.67 16.5 1.16c5.5-0.35 15.18-1.57 21.5-2.71c6.33-1.14 15.77-3.22 21-4.63c5.22-1.4 14.22-4.37 20-6.59c5.77-2.22 16.8-7.09 24.5-10.82c7.7-3.73 17.83-9.12 22.5-11.99c4.68-2.86 16.13-11.34 25.46-18.84c9.33-7.5 20.71-17.47 25.29-22.14c4.58-4.67 10.74-11.65 13.69-15.5c2.94-3.85 5.63-8.01 5.96-9.25c0.46-1.71 0.19-2.25-1.14-2.26c-0.96 0-7.38 5.92-14.25 13.16c-6.88 7.24-16.32 16.39-21 20.32c-4.67 3.93-12.1 9.87-16.5 13.2c-4.4 3.33-12.95 9.3-19 13.26c-6.05 3.96-16.4 9.88-23 13.15c-6.6 3.27-13.47 6.28-15.27 6.69c-2.35 0.53-3.27 0.38-3.25-0.52c0.01-0.69 1.71-2.81 3.77-4.71c2.06-1.9 11.39-8.09 20.72-13.75c9.34-5.66 21.26-13.38 26.5-17.17c5.24-3.78 14.7-11.18 21.03-16.45c6.32-5.26 14.72-12.74 18.65-16.62c4.17-4.11 7.97-8.93 9.12-11.55c1.08-2.48 4.65-8.1 7.94-12.5c3.28-4.4 8.07-10.36 10.63-13.25c2.56-2.89 5.11-5.25 5.66-5.25c0.55 0 1.01 1.69 1.02 3.75c0.01 2.41-1.6 7.14-4.52 13.25c-2.5 5.23-4.3 9.61-4.02 9.75c0.29 0.14 1.08-0.09 1.75-0.5c0.68-0.41 4.95-6.49 9.5-13.5c4.55-7.01 8.72-12.98 9.27-13.25c0.55-0.28 1 0.18 1 1c0 0.82 0.45 1.72 1 2c0.55 0.28 1.57-0.06 2.27-0.75c0.7-0.69 2.02-3.28 2.95-5.75c0.92-2.47 2.37-6.97 3.21-10c0.84-3.03 2.44-6.96 3.54-8.75c1.1-1.79 2.69-3.25 3.52-3.25zm-115.24 99.03c0.41-0.02 0.73 0.3 0.69 0.72c-0.03 0.41-1.27 1.7-2.75 2.86c-1.48 1.16-8.09 5.86-14.69 10.43c-6.6 4.57-14.47 10.25-17.5 12.61c-3.68 2.87-9.48 5.8-17.5 8.85c-6.6 2.51-15.37 5.5-19.5 6.65c-4.13 1.15-11.33 2.71-16 3.47c-4.68 0.76-15.69 1.38-24.5 1.38c-8.8 0-17.8-0.49-20-1.09c-2.2-0.6-5.02-2.06-6.28-3.24c-1.32-1.25-2.26-1.63-2.25-0.9c0.01 0.69-0.65 1.47-1.47 1.75c-0.83 0.28-3.86-0.4-6.75-1.49c-2.89-1.09-7.27-3.75-9.75-5.9c-2.48-2.15-4.15-4.29-3.72-4.76c0.43-0.47 4.48 0.21 9 1.51c4.74 1.36 12.23 2.58 17.72 2.87c5.22 0.28 17.82 0 28-0.62c12.2-0.75 18.84-0.8 19.5-0.15c0.67 0.66 0.42 1.58-0.72 2.76c-0.95 0.98-1.74 2.11-1.75 2.52c-0.01 0.41 0.87 0.75 1.97 0.75c1.1 0 6.39-1.61 11.75-3.57c5.36-1.96 15.83-5.36 23.25-7.54c10.57-3.11 14.04-4.57 16-6.74c1.38-1.53 9.24-6.57 17.48-11.21c8.24-4.64 15.89-9.21 17-10.15c1.11-0.94 2.36-1.73 2.77-1.75z" />
	</g>
</svg>